<svg width="404" height="242" viewBox="0 0 404 242" fill="none" xmlns="http://www.w3.org/2000/svg">
<path d="M339.236 38.0943C356.223 47.5915 369.769 59.1261 377.981 69.9608C382.091 75.3826 384.761 80.4926 385.945 84.9672C387.123 89.419 386.784 93.0153 385.232 95.7903C383.681 98.5654 380.795 100.738 376.386 102.066C371.954 103.401 366.202 103.802 359.431 103.141C345.9 101.819 328.979 96.3208 311.992 86.8237C295.005 77.3265 281.46 65.7918 273.247 54.9572C269.138 49.5353 266.468 44.4254 265.283 39.9508C264.105 35.4988 264.445 31.9028 265.997 29.1276C267.548 26.3526 270.434 24.1798 274.843 22.8518C279.275 21.5172 285.027 21.1157 291.798 21.7771C305.329 23.0989 322.249 28.5971 339.236 38.0943Z" fill="#647A78" stroke="black" stroke-width="7"/>
<path d="M384.5 96.8264C396.796 125.482 394.5 136 314.5 177.5C251.5 213.5 175.796 222.482 163.5 193.826C151.204 165.171 181.519 119.136 240.5 93.8265C299.482 68.5173 372.204 68.171 384.5 96.8264Z" fill="#647A78"/>
<path d="M171.5 205.327C206 216.327 221.463 220.806 312 179.327C425.5 127.327 385.5 92.3265 361.5 81.3265C337.5 70.3265 328 77.8265 292.5 75.8265" stroke="black" stroke-width="7"/>
<path d="M301 88.8265C304.949 102.827 258.5 130.827 218 133.827C158.5 125.827 140.5 127.327 132 107.327C136.5 75.8266 168.532 46.8375 214 40.8265C257 31.8266 295.5 69.3266 301 88.8265Z" fill="#00FEF1"/>
<path d="M267.5 119.827C245.9 133.027 217.834 133.327 206.5 131.827C199.334 130.493 180.052 133.847 175 131.827C167.5 128.827 131.5 121.827 131.5 102.327C131.5 76.0111 165.5 47.8265 206.5 41.8265C247.5 35.8265 264 43.3265 289.5 71.3265C315 99.3265 294.5 103.327 267.5 119.827Z" stroke="black" stroke-width="7"/>
<path d="M136.928 117.757C167.384 125.961 193.34 138.746 210.695 152.642C219.376 159.594 225.771 166.716 229.555 173.547C233.328 180.358 234.405 186.67 232.893 192.284C231.381 197.898 227.279 202.816 220.596 206.81C213.893 210.816 204.786 213.762 193.787 215.413C171.801 218.712 142.935 216.731 112.479 208.528C82.0232 200.325 56.0673 187.539 38.7126 173.643C30.0309 166.692 23.636 159.57 19.8519 152.739C16.0791 145.929 15.0025 139.616 16.5146 134.002C18.0267 128.388 22.1282 123.471 28.8113 119.476C35.5144 115.47 44.6212 112.523 55.62 110.873C77.6064 107.573 106.473 109.554 136.928 117.757Z" fill="#647A78" stroke="black" stroke-width="7"/>
<ellipse cx="258.5" cy="156.827" rx="18.5" ry="9.5" fill="black"/>
<ellipse cx="335.593" cy="119.728" rx="8.97129" ry="15.2718" transform="rotate(19.6946 335.593 119.728)" fill="black"/>
<path d="M183 134.327C137.5 140.327 121.5 178.327 153.5 216.327M140.5 118.827C95.5001 127.327 71.5 171.827 109 205.827M99.5 109.827C49 121.827 30 148.327 65.5001 189.327" stroke="black" stroke-width="7"/>
</svg>
