<svg width="512" height="307" viewBox="0 0 512 307" fill="none" xmlns="http://www.w3.org/2000/svg">
<path d="M430.79 47.5034C452.425 59.5988 469.717 74.3099 480.23 88.1797C485.49 95.1191 488.948 101.711 490.492 107.543C492.029 113.352 491.618 118.179 489.498 121.971C487.378 125.763 483.481 128.642 477.727 130.374C471.951 132.114 464.524 132.619 455.858 131.773C438.536 130.081 416.948 123.054 395.313 110.959C373.679 98.8633 356.387 84.1522 345.874 70.2824C340.614 63.343 337.154 56.7511 335.611 50.9194C334.073 45.1105 334.485 40.2823 336.604 36.4906C338.724 32.699 342.622 29.8209 348.375 28.0882C354.151 26.3487 361.58 25.843 370.246 26.6895C387.567 28.3816 409.156 35.4081 430.79 47.5034Z" fill="#647A78" stroke="black" stroke-width="7"/>
<path d="M487.75 122.827C503.348 159.178 500.435 172.52 398.953 225.164C319.035 270.831 223.003 282.225 207.405 245.875C191.807 209.525 230.262 151.127 305.082 119.022C379.902 86.9163 472.152 86.4771 487.75 122.827Z" fill="#647A78"/>
<path d="M217.553 260.463C261.318 274.417 280.933 280.099 395.782 227.481C539.76 161.518 489.019 117.119 458.574 103.165C428.129 89.2113 416.078 98.7253 371.045 96.1882" stroke="black" stroke-width="7"/>
<path d="M381.828 112.679C386.837 130.439 327.915 165.958 276.54 169.763C201.062 159.615 178.229 161.518 167.446 136.147C173.154 96.1884 213.788 59.4148 271.465 51.7897C326.012 40.373 374.851 87.943 381.828 112.679Z" fill="#00FEF1"/>
<path d="M339.332 152.004C311.932 168.748 276.329 169.129 261.952 167.226C252.861 165.535 228.401 169.789 221.993 167.226C212.479 163.42 166.812 154.541 166.812 129.804C166.812 96.4225 209.942 60.6694 261.952 53.0583C313.962 45.4471 334.892 54.9611 367.24 90.4799C399.588 125.999 373.583 131.073 339.332 152.004Z" stroke="black" stroke-width="7"/>
<path d="M173.942 148.471C212.671 158.903 245.722 175.171 267.86 192.897C278.933 201.764 287.142 210.888 292.02 219.694C296.887 228.48 298.338 236.741 296.339 244.162C294.34 251.584 288.936 257.998 280.315 263.151C271.674 268.316 259.993 272.082 245.964 274.188C217.918 278.397 181.167 275.863 142.439 265.432C103.71 255 70.6588 238.732 48.5207 221.006C37.4473 212.139 29.238 203.015 24.3599 194.209C19.4932 185.423 18.0427 177.163 20.0418 169.741C22.0409 162.319 27.4441 155.904 36.0651 150.752C44.7063 145.587 56.3877 141.821 70.4165 139.715C98.4627 135.507 135.214 138.04 173.942 148.471Z" fill="#647A78" stroke="black" stroke-width="7"/>
<ellipse cx="327.915" cy="198.939" rx="23.4678" ry="12.051" fill="black"/>
<ellipse cx="425.71" cy="151.879" rx="11.3804" ry="19.3728" transform="rotate(19.6946 425.71 151.879)" fill="black"/>
<path d="M232.141 170.397C174.423 178.009 154.127 226.213 194.72 274.417M178.229 150.735C121.145 161.518 90.6999 217.967 138.27 261.097M126.219 139.318C62.158 154.541 38.0559 188.157 83.0888 240.167" stroke="black" stroke-width="7"/>
</svg>
