<svg width="491" height="121" viewBox="0 0 491 121" fill="none" xmlns="http://www.w3.org/2000/svg">
<mask id="path-1-outside-1_221_106" maskUnits="userSpaceOnUse" x="-0.5" y="0" width="491" height="121" fill="black">
<rect fill="white" x="-0.5" width="491" height="121"/>
<path d="M5 32.125V5H24.375V8.875H28.25V12.75H32.125V24.375H28.25V28.25H24.375V32.125H5ZM12.75 28.25H20.5V24.375H24.375V12.75H20.5V8.875H12.75V28.25ZM39.875 32.125V28.25H36V8.875H39.875V5H59.25V8.875H63.125V28.25H59.25V32.125H39.875ZM43.75 28.25H55.375V8.875H43.75V28.25ZM67 32.125V5H74.75V8.875H78.625V12.75H82.5V8.875H86.375V5H94.125V32.125H86.375V16.625H82.5V24.375H78.625V16.625H74.75V32.125H67ZM98 32.125V12.75H101.875V8.875H105.75V5H117.375V8.875H121.25V12.75H125.125V32.125H117.375V24.375H105.75V32.125H98ZM105.75 20.5H117.375V12.75H113.5V8.875H109.625V12.75H105.75V20.5ZM132.875 32.125V28.25H140.625V8.875H132.875V5H156.125V8.875H148.375V28.25H156.125V32.125H132.875ZM160 32.125V5H167.75V8.875H171.625V12.75H175.5V16.625H179.375V5H187.125V32.125H179.375V24.375H175.5V20.5H171.625V16.625H167.75V32.125H160ZM225.875 32.125V28.25H233.625V8.875H225.875V5H249.125V8.875H241.375V28.25H249.125V32.125H225.875ZM253 32.125V5H260.75V8.875H264.625V12.75H268.5V16.625H272.375V5H280.125V32.125H272.375V24.375H268.5V20.5H264.625V16.625H260.75V32.125H253ZM295.625 32.125V28.25H291.75V24.375H287.875V20.5H284V5H291.75V16.625H295.625V20.5H299.5V16.625H303.375V5H311.125V20.5H307.25V24.375H303.375V28.25H299.5V32.125H295.625ZM315 32.125V12.75H318.875V8.875H322.75V5H334.375V8.875H338.25V12.75H342.125V32.125H334.375V24.375H322.75V32.125H315ZM322.75 20.5H334.375V12.75H330.5V8.875H326.625V12.75H322.75V20.5ZM346 32.125V5H365.375V8.875H369.25V12.75H373.125V24.375H369.25V28.25H365.375V32.125H346ZM353.75 28.25H361.5V24.375H365.375V12.75H361.5V8.875H353.75V28.25ZM377 32.125V5H404.125V8.875H384.75V16.625H400.25V20.5H384.75V28.25H404.125V32.125H377ZM408 32.125V5H431.25V8.875H435.125V20.5H427.375V24.375H431.25V28.25H435.125V32.125H423.5V28.25H419.625V24.375H415.75V32.125H408ZM415.75 20.5H423.5V16.625H427.375V8.875H415.75V20.5ZM442.875 32.125V28.25H439V24.375H446.75V28.25H458.375V20.5H442.875V16.625H439V8.875H442.875V5H462.25V8.875H466.125V12.75H458.375V8.875H446.75V16.625H462.25V20.5H466.125V28.25H462.25V32.125H442.875ZM477.75 16.625V8.875H485.5V16.625H477.75ZM477.75 28.25V20.5H485.5V28.25H477.75ZM160 115.125V88H167.75V91.875H171.625V95.75H175.5V91.875H179.375V88H187.125V115.125H179.375V99.625H175.5V107.375H171.625V99.625H167.75V115.125H160ZM194.875 115.125V111.25H191V91.875H194.875V88H214.25V91.875H218.125V111.25H214.25V115.125H194.875ZM198.75 111.25H210.375V91.875H198.75V111.25ZM222 115.125V88H241.375V91.875H245.25V95.75H249.125V107.375H245.25V111.25H241.375V115.125H222ZM229.75 111.25H237.5V107.375H241.375V95.75H237.5V91.875H229.75V111.25ZM256.875 115.125V111.25H253V88H260.75V111.25H272.375V88H280.125V111.25H276.25V115.125H256.875ZM287.875 115.125V88H295.625V111.25H311.125V115.125H287.875ZM318.875 115.125V111.25H315V91.875H318.875V88H338.25V91.875H342.125V111.25H338.25V115.125H318.875ZM322.75 111.25H334.375V91.875H322.75V111.25Z"/>
</mask>
<path d="M5 32.125V5H24.375V8.875H28.25V12.75H32.125V24.375H28.25V28.25H24.375V32.125H5ZM12.75 28.25H20.5V24.375H24.375V12.75H20.5V8.875H12.75V28.25ZM39.875 32.125V28.25H36V8.875H39.875V5H59.25V8.875H63.125V28.25H59.25V32.125H39.875ZM43.75 28.25H55.375V8.875H43.75V28.25ZM67 32.125V5H74.75V8.875H78.625V12.75H82.5V8.875H86.375V5H94.125V32.125H86.375V16.625H82.5V24.375H78.625V16.625H74.75V32.125H67ZM98 32.125V12.75H101.875V8.875H105.75V5H117.375V8.875H121.25V12.75H125.125V32.125H117.375V24.375H105.75V32.125H98ZM105.75 20.5H117.375V12.75H113.5V8.875H109.625V12.75H105.75V20.5ZM132.875 32.125V28.25H140.625V8.875H132.875V5H156.125V8.875H148.375V28.25H156.125V32.125H132.875ZM160 32.125V5H167.75V8.875H171.625V12.75H175.5V16.625H179.375V5H187.125V32.125H179.375V24.375H175.5V20.5H171.625V16.625H167.75V32.125H160ZM225.875 32.125V28.25H233.625V8.875H225.875V5H249.125V8.875H241.375V28.25H249.125V32.125H225.875ZM253 32.125V5H260.75V8.875H264.625V12.75H268.5V16.625H272.375V5H280.125V32.125H272.375V24.375H268.5V20.5H264.625V16.625H260.75V32.125H253ZM295.625 32.125V28.25H291.75V24.375H287.875V20.5H284V5H291.75V16.625H295.625V20.5H299.5V16.625H303.375V5H311.125V20.5H307.25V24.375H303.375V28.25H299.5V32.125H295.625ZM315 32.125V12.75H318.875V8.875H322.75V5H334.375V8.875H338.25V12.75H342.125V32.125H334.375V24.375H322.75V32.125H315ZM322.75 20.5H334.375V12.75H330.5V8.875H326.625V12.75H322.75V20.5ZM346 32.125V5H365.375V8.875H369.25V12.75H373.125V24.375H369.25V28.25H365.375V32.125H346ZM353.75 28.25H361.5V24.375H365.375V12.75H361.5V8.875H353.75V28.25ZM377 32.125V5H404.125V8.875H384.75V16.625H400.25V20.5H384.75V28.25H404.125V32.125H377ZM408 32.125V5H431.25V8.875H435.125V20.5H427.375V24.375H431.25V28.25H435.125V32.125H423.5V28.25H419.625V24.375H415.75V32.125H408ZM415.75 20.5H423.5V16.625H427.375V8.875H415.75V20.5ZM442.875 32.125V28.25H439V24.375H446.75V28.25H458.375V20.5H442.875V16.625H439V8.875H442.875V5H462.25V8.875H466.125V12.75H458.375V8.875H446.75V16.625H462.25V20.5H466.125V28.25H462.25V32.125H442.875ZM477.75 16.625V8.875H485.5V16.625H477.75ZM477.75 28.25V20.5H485.5V28.25H477.75ZM160 115.125V88H167.75V91.875H171.625V95.75H175.5V91.875H179.375V88H187.125V115.125H179.375V99.625H175.5V107.375H171.625V99.625H167.75V115.125H160ZM194.875 115.125V111.25H191V91.875H194.875V88H214.25V91.875H218.125V111.25H214.25V115.125H194.875ZM198.75 111.25H210.375V91.875H198.75V111.25ZM222 115.125V88H241.375V91.875H245.25V95.75H249.125V107.375H245.25V111.25H241.375V115.125H222ZM229.75 111.25H237.5V107.375H241.375V95.75H237.5V91.875H229.75V111.25ZM256.875 115.125V111.25H253V88H260.75V111.25H272.375V88H280.125V111.25H276.25V115.125H256.875ZM287.875 115.125V88H295.625V111.25H311.125V115.125H287.875ZM318.875 115.125V111.25H315V91.875H318.875V88H338.25V91.875H342.125V111.25H338.25V115.125H318.875ZM322.75 111.25H334.375V91.875H322.75V111.25Z" fill="#DCFF6A"/>
<path d="M5 32.125H0V37.125H5V32.125ZM5 5V0H0V5H5ZM24.375 5H29.375V0H24.375V5ZM24.375 8.875H19.375V13.875H24.375V8.875ZM28.25 8.875H33.25V3.875H28.25V8.875ZM28.25 12.75H23.25V17.75H28.25V12.75ZM32.125 12.75H37.125V7.75H32.125V12.75ZM32.125 24.375V29.375H37.125V24.375H32.125ZM28.25 24.375V19.375H23.25V24.375H28.25ZM28.25 28.25V33.25H33.25V28.25H28.25ZM24.375 28.25V23.25H19.375V28.25H24.375ZM24.375 32.125V37.125H29.375V32.125H24.375ZM12.75 28.25H7.75V33.25H12.75V28.25ZM20.5 28.25V33.25H25.5V28.25H20.5ZM20.5 24.375V19.375H15.5V24.375H20.5ZM24.375 24.375V29.375H29.375V24.375H24.375ZM24.375 12.75H29.375V7.75H24.375V12.75ZM20.5 12.75H15.5V17.75H20.5V12.75ZM20.5 8.875H25.5V3.875H20.5V8.875ZM12.75 8.875V3.875H7.75V8.875H12.75ZM5 32.125H10V5H5H0V32.125H5ZM5 5V10H24.375V5V0H5V5ZM24.375 5H19.375V8.875H24.375H29.375V5H24.375ZM24.375 8.875V13.875H28.25V8.875V3.875H24.375V8.875ZM28.25 8.875H23.25V12.75H28.25H33.25V8.875H28.25ZM28.25 12.75V17.75H32.125V12.75V7.75H28.25V12.75ZM32.125 12.75H27.125V24.375H32.125H37.125V12.75H32.125ZM32.125 24.375V19.375H28.25V24.375V29.375H32.125V24.375ZM28.25 24.375H23.25V28.25H28.25H33.25V24.375H28.25ZM28.25 28.25V23.25H24.375V28.25V33.25H28.25V28.25ZM24.375 28.25H19.375V32.125H24.375H29.375V28.25H24.375ZM24.375 32.125V27.125H5V32.125V37.125H24.375V32.125ZM12.75 28.25V33.25H20.5V28.25V23.25H12.75V28.25ZM20.5 28.25H25.5V24.375H20.5H15.5V28.25H20.5ZM20.5 24.375V29.375H24.375V24.375V19.375H20.5V24.375ZM24.375 24.375H29.375V12.75H24.375H19.375V24.375H24.375ZM24.375 12.75V7.75H20.5V12.75V17.75H24.375V12.75ZM20.5 12.75H25.5V8.875H20.5H15.5V12.75H20.5ZM20.5 8.875V3.875H12.75V8.875V13.875H20.5V8.875ZM12.75 8.875H7.75V28.25H12.75H17.75V8.875H12.75ZM39.875 32.125H34.875V37.125H39.875V32.125ZM39.875 28.25H44.875V23.25H39.875V28.25ZM36 28.25H31V33.25H36V28.25ZM36 8.875V3.875H31V8.875H36ZM39.875 8.875V13.875H44.875V8.875H39.875ZM39.875 5V0H34.875V5H39.875ZM59.25 5H64.25V0H59.25V5ZM59.25 8.875H54.25V13.875H59.25V8.875ZM63.125 8.875H68.125V3.875H63.125V8.875ZM63.125 28.25V33.25H68.125V28.25H63.125ZM59.25 28.25V23.25H54.25V28.25H59.25ZM59.25 32.125V37.125H64.25V32.125H59.25ZM43.75 28.25H38.75V33.25H43.75V28.25ZM55.375 28.25V33.25H60.375V28.25H55.375ZM55.375 8.875H60.375V3.875H55.375V8.875ZM43.75 8.875V3.875H38.75V8.875H43.75ZM39.875 32.125H44.875V28.25H39.875H34.875V32.125H39.875ZM39.875 28.25V23.25H36V28.25V33.25H39.875V28.25ZM36 28.25H41V8.875H36H31V28.25H36ZM36 8.875V13.875H39.875V8.875V3.875H36V8.875ZM39.875 8.875H44.875V5H39.875H34.875V8.875H39.875ZM39.875 5V10H59.25V5V0H39.875V5ZM59.25 5H54.25V8.875H59.25H64.25V5H59.25ZM59.25 8.875V13.875H63.125V8.875V3.875H59.25V8.875ZM63.125 8.875H58.125V28.25H63.125H68.125V8.875H63.125ZM63.125 28.25V23.25H59.25V28.25V33.25H63.125V28.25ZM59.25 28.25H54.25V32.125H59.25H64.25V28.25H59.25ZM59.25 32.125V27.125H39.875V32.125V37.125H59.25V32.125ZM43.75 28.25V33.25H55.375V28.25V23.25H43.75V28.25ZM55.375 28.25H60.375V8.875H55.375H50.375V28.25H55.375ZM55.375 8.875V3.875H43.75V8.875V13.875H55.375V8.875ZM43.75 8.875H38.75V28.25H43.75H48.75V8.875H43.75ZM67 32.125H62V37.125H67V32.125ZM67 5V0H62V5H67ZM74.75 5H79.75V0H74.75V5ZM74.75 8.875H69.75V13.875H74.75V8.875ZM78.625 8.875H83.625V3.875H78.625V8.875ZM78.625 12.75H73.625V17.75H78.625V12.75ZM82.5 12.75V17.75H87.5V12.75H82.5ZM82.5 8.875V3.875H77.5V8.875H82.5ZM86.375 8.875V13.875H91.375V8.875H86.375ZM86.375 5V0H81.375V5H86.375ZM94.125 5H99.125V0H94.125V5ZM94.125 32.125V37.125H99.125V32.125H94.125ZM86.375 32.125H81.375V37.125H86.375V32.125ZM86.375 16.625H91.375V11.625H86.375V16.625ZM82.5 16.625V11.625H77.5V16.625H82.5ZM82.5 24.375V29.375H87.5V24.375H82.5ZM78.625 24.375H73.625V29.375H78.625V24.375ZM78.625 16.625H83.625V11.625H78.625V16.625ZM74.75 16.625V11.625H69.75V16.625H74.75ZM74.75 32.125V37.125H79.75V32.125H74.75ZM67 32.125H72V5H67H62V32.125H67ZM67 5V10H74.75V5V0H67V5ZM74.75 5H69.75V8.875H74.75H79.75V5H74.75ZM74.75 8.875V13.875H78.625V8.875V3.875H74.75V8.875ZM78.625 8.875H73.625V12.75H78.625H83.625V8.875H78.625ZM78.625 12.75V17.75H82.5V12.75V7.75H78.625V12.75ZM82.5 12.75H87.5V8.875H82.5H77.5V12.75H82.5ZM82.5 8.875V13.875H86.375V8.875V3.875H82.5V8.875ZM86.375 8.875H91.375V5H86.375H81.375V8.875H86.375ZM86.375 5V10H94.125V5V0H86.375V5ZM94.125 5H89.125V32.125H94.125H99.125V5H94.125ZM94.125 32.125V27.125H86.375V32.125V37.125H94.125V32.125ZM86.375 32.125H91.375V16.625H86.375H81.375V32.125H86.375ZM86.375 16.625V11.625H82.5V16.625V21.625H86.375V16.625ZM82.5 16.625H77.5V24.375H82.5H87.5V16.625H82.5ZM82.5 24.375V19.375H78.625V24.375V29.375H82.5V24.375ZM78.625 24.375H83.625V16.625H78.625H73.625V24.375H78.625ZM78.625 16.625V11.625H74.75V16.625V21.625H78.625V16.625ZM74.75 16.625H69.75V32.125H74.75H79.75V16.625H74.75ZM74.75 32.125V27.125H67V32.125V37.125H74.75V32.125ZM98 32.125H93V37.125H98V32.125ZM98 12.75V7.75H93V12.75H98ZM101.875 12.75V17.75H106.875V12.75H101.875ZM101.875 8.875V3.875H96.875V8.875H101.875ZM105.75 8.875V13.875H110.75V8.875H105.75ZM105.75 5V0H100.75V5H105.75ZM117.375 5H122.375V0H117.375V5ZM117.375 8.875H112.375V13.875H117.375V8.875ZM121.25 8.875H126.25V3.875H121.25V8.875ZM121.25 12.75H116.25V17.75H121.25V12.75ZM125.125 12.75H130.125V7.75H125.125V12.75ZM125.125 32.125V37.125H130.125V32.125H125.125ZM117.375 32.125H112.375V37.125H117.375V32.125ZM117.375 24.375H122.375V19.375H117.375V24.375ZM105.75 24.375V19.375H100.75V24.375H105.75ZM105.75 32.125V37.125H110.75V32.125H105.75ZM105.75 20.5H100.75V25.5H105.75V20.5ZM117.375 20.5V25.5H122.375V20.5H117.375ZM117.375 12.75H122.375V7.75H117.375V12.75ZM113.5 12.75H108.5V17.75H113.5V12.75ZM113.5 8.875H118.5V3.875H113.5V8.875ZM109.625 8.875V3.875H104.625V8.875H109.625ZM109.625 12.75V17.75H114.625V12.75H109.625ZM105.75 12.75V7.75H100.75V12.75H105.75ZM98 32.125H103V12.75H98H93V32.125H98ZM98 12.75V17.75H101.875V12.75V7.75H98V12.75ZM101.875 12.75H106.875V8.875H101.875H96.875V12.75H101.875ZM101.875 8.875V13.875H105.75V8.875V3.875H101.875V8.875ZM105.75 8.875H110.75V5H105.75H100.75V8.875H105.75ZM105.75 5V10H117.375V5V0H105.75V5ZM117.375 5H112.375V8.875H117.375H122.375V5H117.375ZM117.375 8.875V13.875H121.25V8.875V3.875H117.375V8.875ZM121.25 8.875H116.25V12.75H121.25H126.25V8.875H121.25ZM121.25 12.75V17.75H125.125V12.75V7.75H121.25V12.75ZM125.125 12.75H120.125V32.125H125.125H130.125V12.75H125.125ZM125.125 32.125V27.125H117.375V32.125V37.125H125.125V32.125ZM117.375 32.125H122.375V24.375H117.375H112.375V32.125H117.375ZM117.375 24.375V19.375H105.75V24.375V29.375H117.375V24.375ZM105.75 24.375H100.75V32.125H105.75H110.75V24.375H105.75ZM105.75 32.125V27.125H98V32.125V37.125H105.75V32.125ZM105.75 20.5V25.5H117.375V20.5V15.5H105.75V20.5ZM117.375 20.5H122.375V12.75H117.375H112.375V20.5H117.375ZM117.375 12.75V7.75H113.5V12.75V17.75H117.375V12.75ZM113.5 12.75H118.5V8.875H113.5H108.5V12.75H113.5ZM113.5 8.875V3.875H109.625V8.875V13.875H113.5V8.875ZM109.625 8.875H104.625V12.75H109.625H114.625V8.875H109.625ZM109.625 12.75V7.75H105.75V12.75V17.75H109.625V12.75ZM105.75 12.75H100.75V20.5H105.75H110.75V12.75H105.75ZM132.875 32.125H127.875V37.125H132.875V32.125ZM132.875 28.25V23.25H127.875V28.25H132.875ZM140.625 28.25V33.25H145.625V28.25H140.625ZM140.625 8.875H145.625V3.875H140.625V8.875ZM132.875 8.875H127.875V13.875H132.875V8.875ZM132.875 5V0H127.875V5H132.875ZM156.125 5H161.125V0H156.125V5ZM156.125 8.875V13.875H161.125V8.875H156.125ZM148.375 8.875V3.875H143.375V8.875H148.375ZM148.375 28.25H143.375V33.25H148.375V28.25ZM156.125 28.25H161.125V23.25H156.125V28.25ZM156.125 32.125V37.125H161.125V32.125H156.125ZM132.875 32.125H137.875V28.25H132.875H127.875V32.125H132.875ZM132.875 28.25V33.25H140.625V28.25V23.25H132.875V28.25ZM140.625 28.25H145.625V8.875H140.625H135.625V28.25H140.625ZM140.625 8.875V3.875H132.875V8.875V13.875H140.625V8.875ZM132.875 8.875H137.875V5H132.875H127.875V8.875H132.875ZM132.875 5V10H156.125V5V0H132.875V5ZM156.125 5H151.125V8.875H156.125H161.125V5H156.125ZM156.125 8.875V3.875H148.375V8.875V13.875H156.125V8.875ZM148.375 8.875H143.375V28.25H148.375H153.375V8.875H148.375ZM148.375 28.25V33.25H156.125V28.25V23.25H148.375V28.25ZM156.125 28.25H151.125V32.125H156.125H161.125V28.25H156.125ZM156.125 32.125V27.125H132.875V32.125V37.125H156.125V32.125ZM160 32.125H155V37.125H160V32.125ZM160 5V0H155V5H160ZM167.75 5H172.75V0H167.75V5ZM167.75 8.875H162.75V13.875H167.75V8.875ZM171.625 8.875H176.625V3.875H171.625V8.875ZM171.625 12.75H166.625V17.75H171.625V12.75ZM175.5 12.75H180.5V7.75H175.5V12.75ZM175.5 16.625H170.5V21.625H175.5V16.625ZM179.375 16.625V21.625H184.375V16.625H179.375ZM179.375 5V0H174.375V5H179.375ZM187.125 5H192.125V0H187.125V5ZM187.125 32.125V37.125H192.125V32.125H187.125ZM179.375 32.125H174.375V37.125H179.375V32.125ZM179.375 24.375H184.375V19.375H179.375V24.375ZM175.5 24.375H170.5V29.375H175.5V24.375ZM175.5 20.5H180.5V15.5H175.5V20.5ZM171.625 20.5H166.625V25.5H171.625V20.5ZM171.625 16.625H176.625V11.625H171.625V16.625ZM167.75 16.625V11.625H162.75V16.625H167.75ZM167.75 32.125V37.125H172.75V32.125H167.75ZM160 32.125H165V5H160H155V32.125H160ZM160 5V10H167.75V5V0H160V5ZM167.75 5H162.75V8.875H167.75H172.75V5H167.75ZM167.75 8.875V13.875H171.625V8.875V3.875H167.75V8.875ZM171.625 8.875H166.625V12.75H171.625H176.625V8.875H171.625ZM171.625 12.75V17.75H175.5V12.75V7.75H171.625V12.75ZM175.5 12.75H170.5V16.625H175.5H180.5V12.75H175.5ZM175.5 16.625V21.625H179.375V16.625V11.625H175.5V16.625ZM179.375 16.625H184.375V5H179.375H174.375V16.625H179.375ZM179.375 5V10H187.125V5V0H179.375V5ZM187.125 5H182.125V32.125H187.125H192.125V5H187.125ZM187.125 32.125V27.125H179.375V32.125V37.125H187.125V32.125ZM179.375 32.125H184.375V24.375H179.375H174.375V32.125H179.375ZM179.375 24.375V19.375H175.5V24.375V29.375H179.375V24.375ZM175.5 24.375H180.5V20.5H175.5H170.5V24.375H175.5ZM175.5 20.5V15.5H171.625V20.5V25.5H175.5V20.5ZM171.625 20.5H176.625V16.625H171.625H166.625V20.5H171.625ZM171.625 16.625V11.625H167.75V16.625V21.625H171.625V16.625ZM167.75 16.625H162.75V32.125H167.75H172.75V16.625H167.75ZM167.75 32.125V27.125H160V32.125V37.125H167.75V32.125ZM225.875 32.125H220.875V37.125H225.875V32.125ZM225.875 28.25V23.25H220.875V28.25H225.875ZM233.625 28.25V33.25H238.625V28.25H233.625ZM233.625 8.875H238.625V3.875H233.625V8.875ZM225.875 8.875H220.875V13.875H225.875V8.875ZM225.875 5V0H220.875V5H225.875ZM249.125 5H254.125V0H249.125V5ZM249.125 8.875V13.875H254.125V8.875H249.125ZM241.375 8.875V3.875H236.375V8.875H241.375ZM241.375 28.25H236.375V33.25H241.375V28.25ZM249.125 28.25H254.125V23.25H249.125V28.25ZM249.125 32.125V37.125H254.125V32.125H249.125ZM225.875 32.125H230.875V28.25H225.875H220.875V32.125H225.875ZM225.875 28.25V33.25H233.625V28.25V23.25H225.875V28.25ZM233.625 28.25H238.625V8.875H233.625H228.625V28.25H233.625ZM233.625 8.875V3.875H225.875V8.875V13.875H233.625V8.875ZM225.875 8.875H230.875V5H225.875H220.875V8.875H225.875ZM225.875 5V10H249.125V5V0H225.875V5ZM249.125 5H244.125V8.875H249.125H254.125V5H249.125ZM249.125 8.875V3.875H241.375V8.875V13.875H249.125V8.875ZM241.375 8.875H236.375V28.25H241.375H246.375V8.875H241.375ZM241.375 28.25V33.25H249.125V28.25V23.25H241.375V28.25ZM249.125 28.25H244.125V32.125H249.125H254.125V28.25H249.125ZM249.125 32.125V27.125H225.875V32.125V37.125H249.125V32.125ZM253 32.125H248V37.125H253V32.125ZM253 5V0H248V5H253ZM260.75 5H265.75V0H260.75V5ZM260.75 8.875H255.75V13.875H260.75V8.875ZM264.625 8.875H269.625V3.875H264.625V8.875ZM264.625 12.75H259.625V17.75H264.625V12.75ZM268.5 12.75H273.5V7.75H268.5V12.75ZM268.5 16.625H263.5V21.625H268.5V16.625ZM272.375 16.625V21.625H277.375V16.625H272.375ZM272.375 5V0H267.375V5H272.375ZM280.125 5H285.125V0H280.125V5ZM280.125 32.125V37.125H285.125V32.125H280.125ZM272.375 32.125H267.375V37.125H272.375V32.125ZM272.375 24.375H277.375V19.375H272.375V24.375ZM268.5 24.375H263.5V29.375H268.5V24.375ZM268.5 20.5H273.5V15.5H268.5V20.5ZM264.625 20.5H259.625V25.5H264.625V20.5ZM264.625 16.625H269.625V11.625H264.625V16.625ZM260.75 16.625V11.625H255.75V16.625H260.75ZM260.75 32.125V37.125H265.75V32.125H260.75ZM253 32.125H258V5H253H248V32.125H253ZM253 5V10H260.75V5V0H253V5ZM260.75 5H255.75V8.875H260.75H265.75V5H260.75ZM260.75 8.875V13.875H264.625V8.875V3.875H260.75V8.875ZM264.625 8.875H259.625V12.75H264.625H269.625V8.875H264.625ZM264.625 12.75V17.75H268.5V12.75V7.75H264.625V12.75ZM268.5 12.75H263.5V16.625H268.5H273.5V12.75H268.5ZM268.5 16.625V21.625H272.375V16.625V11.625H268.5V16.625ZM272.375 16.625H277.375V5H272.375H267.375V16.625H272.375ZM272.375 5V10H280.125V5V0H272.375V5ZM280.125 5H275.125V32.125H280.125H285.125V5H280.125ZM280.125 32.125V27.125H272.375V32.125V37.125H280.125V32.125ZM272.375 32.125H277.375V24.375H272.375H267.375V32.125H272.375ZM272.375 24.375V19.375H268.5V24.375V29.375H272.375V24.375ZM268.5 24.375H273.5V20.5H268.5H263.5V24.375H268.5ZM268.5 20.5V15.5H264.625V20.5V25.5H268.5V20.5ZM264.625 20.5H269.625V16.625H264.625H259.625V20.5H264.625ZM264.625 16.625V11.625H260.75V16.625V21.625H264.625V16.625ZM260.75 16.625H255.75V32.125H260.75H265.75V16.625H260.75ZM260.75 32.125V27.125H253V32.125V37.125H260.75V32.125ZM295.625 32.125H290.625V37.125H295.625V32.125ZM295.625 28.25H300.625V23.25H295.625V28.25ZM291.75 28.25H286.75V33.25H291.75V28.25ZM291.75 24.375H296.75V19.375H291.75V24.375ZM287.875 24.375H282.875V29.375H287.875V24.375ZM287.875 20.5H292.875V15.5H287.875V20.5ZM284 20.5H279V25.5H284V20.5ZM284 5V0H279V5H284ZM291.75 5H296.75V0H291.75V5ZM291.75 16.625H286.75V21.625H291.75V16.625ZM295.625 16.625H300.625V11.625H295.625V16.625ZM295.625 20.5H290.625V25.5H295.625V20.5ZM299.5 20.5V25.5H304.5V20.5H299.5ZM299.5 16.625V11.625H294.5V16.625H299.5ZM303.375 16.625V21.625H308.375V16.625H303.375ZM303.375 5V0H298.375V5H303.375ZM311.125 5H316.125V0H311.125V5ZM311.125 20.5V25.5H316.125V20.5H311.125ZM307.25 20.5V15.5H302.25V20.5H307.25ZM307.25 24.375V29.375H312.25V24.375H307.25ZM303.375 24.375V19.375H298.375V24.375H303.375ZM303.375 28.25V33.25H308.375V28.25H303.375ZM299.5 28.25V23.25H294.5V28.25H299.5ZM299.5 32.125V37.125H304.5V32.125H299.5ZM295.625 32.125H300.625V28.25H295.625H290.625V32.125H295.625ZM295.625 28.25V23.25H291.75V28.25V33.25H295.625V28.25ZM291.75 28.25H296.75V24.375H291.75H286.75V28.25H291.75ZM291.75 24.375V19.375H287.875V24.375V29.375H291.75V24.375ZM287.875 24.375H292.875V20.5H287.875H282.875V24.375H287.875ZM287.875 20.5V15.5H284V20.5V25.5H287.875V20.5ZM284 20.5H289V5H284H279V20.5H284ZM284 5V10H291.75V5V0H284V5ZM291.75 5H286.75V16.625H291.75H296.75V5H291.75ZM291.75 16.625V21.625H295.625V16.625V11.625H291.75V16.625ZM295.625 16.625H290.625V20.5H295.625H300.625V16.625H295.625ZM295.625 20.5V25.5H299.5V20.5V15.5H295.625V20.5ZM299.5 20.5H304.5V16.625H299.5H294.5V20.5H299.5ZM299.5 16.625V21.625H303.375V16.625V11.625H299.5V16.625ZM303.375 16.625H308.375V5H303.375H298.375V16.625H303.375ZM303.375 5V10H311.125V5V0H303.375V5ZM311.125 5H306.125V20.5H311.125H316.125V5H311.125ZM311.125 20.5V15.5H307.25V20.5V25.5H311.125V20.5ZM307.25 20.5H302.25V24.375H307.25H312.25V20.5H307.25ZM307.25 24.375V19.375H303.375V24.375V29.375H307.25V24.375ZM303.375 24.375H298.375V28.25H303.375H308.375V24.375H303.375ZM303.375 28.25V23.25H299.5V28.25V33.25H303.375V28.25ZM299.5 28.25H294.5V32.125H299.5H304.5V28.25H299.5ZM299.5 32.125V27.125H295.625V32.125V37.125H299.5V32.125ZM315 32.125H310V37.125H315V32.125ZM315 12.75V7.75H310V12.75H315ZM318.875 12.75V17.75H323.875V12.75H318.875ZM318.875 8.875V3.875H313.875V8.875H318.875ZM322.75 8.875V13.875H327.75V8.875H322.75ZM322.75 5V0H317.75V5H322.75ZM334.375 5H339.375V0H334.375V5ZM334.375 8.875H329.375V13.875H334.375V8.875ZM338.25 8.875H343.25V3.875H338.25V8.875ZM338.25 12.75H333.25V17.75H338.25V12.75ZM342.125 12.75H347.125V7.75H342.125V12.75ZM342.125 32.125V37.125H347.125V32.125H342.125ZM334.375 32.125H329.375V37.125H334.375V32.125ZM334.375 24.375H339.375V19.375H334.375V24.375ZM322.75 24.375V19.375H317.75V24.375H322.75ZM322.75 32.125V37.125H327.75V32.125H322.75ZM322.75 20.5H317.75V25.5H322.75V20.5ZM334.375 20.5V25.5H339.375V20.5H334.375ZM334.375 12.75H339.375V7.75H334.375V12.75ZM330.5 12.75H325.5V17.75H330.5V12.75ZM330.5 8.875H335.5V3.875H330.5V8.875ZM326.625 8.875V3.875H321.625V8.875H326.625ZM326.625 12.75V17.75H331.625V12.75H326.625ZM322.75 12.75V7.75H317.75V12.75H322.75ZM315 32.125H320V12.75H315H310V32.125H315ZM315 12.75V17.75H318.875V12.75V7.75H315V12.75ZM318.875 12.75H323.875V8.875H318.875H313.875V12.75H318.875ZM318.875 8.875V13.875H322.75V8.875V3.875H318.875V8.875ZM322.75 8.875H327.75V5H322.75H317.75V8.875H322.75ZM322.75 5V10H334.375V5V0H322.75V5ZM334.375 5H329.375V8.875H334.375H339.375V5H334.375ZM334.375 8.875V13.875H338.25V8.875V3.875H334.375V8.875ZM338.25 8.875H333.25V12.75H338.25H343.25V8.875H338.25ZM338.25 12.75V17.75H342.125V12.75V7.75H338.25V12.75ZM342.125 12.75H337.125V32.125H342.125H347.125V12.75H342.125ZM342.125 32.125V27.125H334.375V32.125V37.125H342.125V32.125ZM334.375 32.125H339.375V24.375H334.375H329.375V32.125H334.375ZM334.375 24.375V19.375H322.75V24.375V29.375H334.375V24.375ZM322.75 24.375H317.75V32.125H322.75H327.75V24.375H322.75ZM322.75 32.125V27.125H315V32.125V37.125H322.75V32.125ZM322.75 20.5V25.5H334.375V20.5V15.5H322.75V20.5ZM334.375 20.5H339.375V12.75H334.375H329.375V20.5H334.375ZM334.375 12.75V7.75H330.5V12.75V17.75H334.375V12.75ZM330.5 12.75H335.5V8.875H330.5H325.5V12.75H330.5ZM330.5 8.875V3.875H326.625V8.875V13.875H330.5V8.875ZM326.625 8.875H321.625V12.75H326.625H331.625V8.875H326.625ZM326.625 12.75V7.75H322.75V12.75V17.75H326.625V12.75ZM322.75 12.75H317.75V20.5H322.75H327.75V12.75H322.75ZM346 32.125H341V37.125H346V32.125ZM346 5V0H341V5H346ZM365.375 5H370.375V0H365.375V5ZM365.375 8.875H360.375V13.875H365.375V8.875ZM369.25 8.875H374.25V3.875H369.25V8.875ZM369.25 12.75H364.25V17.75H369.25V12.75ZM373.125 12.75H378.125V7.75H373.125V12.75ZM373.125 24.375V29.375H378.125V24.375H373.125ZM369.25 24.375V19.375H364.25V24.375H369.25ZM369.25 28.25V33.25H374.25V28.25H369.25ZM365.375 28.25V23.25H360.375V28.25H365.375ZM365.375 32.125V37.125H370.375V32.125H365.375ZM353.75 28.25H348.75V33.25H353.75V28.25ZM361.5 28.25V33.25H366.5V28.25H361.5ZM361.5 24.375V19.375H356.5V24.375H361.5ZM365.375 24.375V29.375H370.375V24.375H365.375ZM365.375 12.75H370.375V7.75H365.375V12.75ZM361.5 12.75H356.5V17.75H361.5V12.75ZM361.5 8.875H366.5V3.875H361.5V8.875ZM353.75 8.875V3.875H348.75V8.875H353.75ZM346 32.125H351V5H346H341V32.125H346ZM346 5V10H365.375V5V0H346V5ZM365.375 5H360.375V8.875H365.375H370.375V5H365.375ZM365.375 8.875V13.875H369.25V8.875V3.875H365.375V8.875ZM369.25 8.875H364.25V12.75H369.25H374.25V8.875H369.25ZM369.25 12.75V17.75H373.125V12.75V7.75H369.25V12.75ZM373.125 12.75H368.125V24.375H373.125H378.125V12.75H373.125ZM373.125 24.375V19.375H369.25V24.375V29.375H373.125V24.375ZM369.25 24.375H364.25V28.25H369.25H374.25V24.375H369.25ZM369.25 28.25V23.25H365.375V28.25V33.25H369.25V28.25ZM365.375 28.25H360.375V32.125H365.375H370.375V28.25H365.375ZM365.375 32.125V27.125H346V32.125V37.125H365.375V32.125ZM353.75 28.25V33.25H361.5V28.25V23.25H353.75V28.25ZM361.5 28.25H366.5V24.375H361.5H356.5V28.25H361.5ZM361.5 24.375V29.375H365.375V24.375V19.375H361.5V24.375ZM365.375 24.375H370.375V12.75H365.375H360.375V24.375H365.375ZM365.375 12.75V7.75H361.5V12.75V17.75H365.375V12.75ZM361.5 12.75H366.5V8.875H361.5H356.5V12.75H361.5ZM361.5 8.875V3.875H353.75V8.875V13.875H361.5V8.875ZM353.75 8.875H348.75V28.25H353.75H358.75V8.875H353.75ZM377 32.125H372V37.125H377V32.125ZM377 5V0H372V5H377ZM404.125 5H409.125V0H404.125V5ZM404.125 8.875V13.875H409.125V8.875H404.125ZM384.75 8.875V3.875H379.75V8.875H384.75ZM384.75 16.625H379.75V21.625H384.75V16.625ZM400.25 16.625H405.25V11.625H400.25V16.625ZM400.25 20.5V25.5H405.25V20.5H400.25ZM384.75 20.5V15.5H379.75V20.5H384.75ZM384.75 28.25H379.75V33.25H384.75V28.25ZM404.125 28.25H409.125V23.25H404.125V28.25ZM404.125 32.125V37.125H409.125V32.125H404.125ZM377 32.125H382V5H377H372V32.125H377ZM377 5V10H404.125V5V0H377V5ZM404.125 5H399.125V8.875H404.125H409.125V5H404.125ZM404.125 8.875V3.875H384.75V8.875V13.875H404.125V8.875ZM384.75 8.875H379.75V16.625H384.75H389.75V8.875H384.75ZM384.75 16.625V21.625H400.25V16.625V11.625H384.75V16.625ZM400.25 16.625H395.25V20.5H400.25H405.25V16.625H400.25ZM400.25 20.5V15.5H384.75V20.5V25.5H400.25V20.5ZM384.75 20.5H379.75V28.25H384.75H389.75V20.5H384.75ZM384.75 28.25V33.25H404.125V28.25V23.25H384.75V28.25ZM404.125 28.25H399.125V32.125H404.125H409.125V28.25H404.125ZM404.125 32.125V27.125H377V32.125V37.125H404.125V32.125ZM408 32.125H403V37.125H408V32.125ZM408 5V0H403V5H408ZM431.25 5H436.25V0H431.25V5ZM431.25 8.875H426.25V13.875H431.25V8.875ZM435.125 8.875H440.125V3.875H435.125V8.875ZM435.125 20.5V25.5H440.125V20.5H435.125ZM427.375 20.5V15.5H422.375V20.5H427.375ZM427.375 24.375H422.375V29.375H427.375V24.375ZM431.25 24.375H436.25V19.375H431.25V24.375ZM431.25 28.25H426.25V33.25H431.25V28.25ZM435.125 28.25H440.125V23.25H435.125V28.25ZM435.125 32.125V37.125H440.125V32.125H435.125ZM423.5 32.125H418.5V37.125H423.5V32.125ZM423.5 28.25H428.5V23.25H423.5V28.25ZM419.625 28.25H414.625V33.25H419.625V28.25ZM419.625 24.375H424.625V19.375H419.625V24.375ZM415.75 24.375V19.375H410.75V24.375H415.75ZM415.75 32.125V37.125H420.75V32.125H415.75ZM415.75 20.5H410.75V25.5H415.75V20.5ZM423.5 20.5V25.5H428.5V20.5H423.5ZM423.5 16.625V11.625H418.5V16.625H423.5ZM427.375 16.625V21.625H432.375V16.625H427.375ZM427.375 8.875H432.375V3.875H427.375V8.875ZM415.75 8.875V3.875H410.75V8.875H415.75ZM408 32.125H413V5H408H403V32.125H408ZM408 5V10H431.25V5V0H408V5ZM431.25 5H426.25V8.875H431.25H436.25V5H431.25ZM431.25 8.875V13.875H435.125V8.875V3.875H431.25V8.875ZM435.125 8.875H430.125V20.5H435.125H440.125V8.875H435.125ZM435.125 20.5V15.5H427.375V20.5V25.5H435.125V20.5ZM427.375 20.5H422.375V24.375H427.375H432.375V20.5H427.375ZM427.375 24.375V29.375H431.25V24.375V19.375H427.375V24.375ZM431.25 24.375H426.25V28.25H431.25H436.25V24.375H431.25ZM431.25 28.25V33.25H435.125V28.25V23.25H431.25V28.25ZM435.125 28.25H430.125V32.125H435.125H440.125V28.25H435.125ZM435.125 32.125V27.125H423.5V32.125V37.125H435.125V32.125ZM423.5 32.125H428.5V28.25H423.5H418.5V32.125H423.5ZM423.5 28.25V23.25H419.625V28.25V33.25H423.5V28.25ZM419.625 28.25H424.625V24.375H419.625H414.625V28.25H419.625ZM419.625 24.375V19.375H415.75V24.375V29.375H419.625V24.375ZM415.75 24.375H410.75V32.125H415.75H420.75V24.375H415.75ZM415.75 32.125V27.125H408V32.125V37.125H415.75V32.125ZM415.75 20.5V25.5H423.5V20.5V15.5H415.75V20.5ZM423.5 20.5H428.5V16.625H423.5H418.5V20.5H423.5ZM423.5 16.625V21.625H427.375V16.625V11.625H423.5V16.625ZM427.375 16.625H432.375V8.875H427.375H422.375V16.625H427.375ZM427.375 8.875V3.875H415.75V8.875V13.875H427.375V8.875ZM415.75 8.875H410.75V20.5H415.75H420.75V8.875H415.75ZM442.875 32.125H437.875V37.125H442.875V32.125ZM442.875 28.25H447.875V23.25H442.875V28.25ZM439 28.25H434V33.25H439V28.25ZM439 24.375V19.375H434V24.375H439ZM446.75 24.375H451.75V19.375H446.75V24.375ZM446.75 28.25H441.75V33.25H446.75V28.25ZM458.375 28.25V33.25H463.375V28.25H458.375ZM458.375 20.5H463.375V15.5H458.375V20.5ZM442.875 20.5H437.875V25.5H442.875V20.5ZM442.875 16.625H447.875V11.625H442.875V16.625ZM439 16.625H434V21.625H439V16.625ZM439 8.875V3.875H434V8.875H439ZM442.875 8.875V13.875H447.875V8.875H442.875ZM442.875 5V0H437.875V5H442.875ZM462.25 5H467.25V0H462.25V5ZM462.25 8.875H457.25V13.875H462.25V8.875ZM466.125 8.875H471.125V3.875H466.125V8.875ZM466.125 12.75V17.75H471.125V12.75H466.125ZM458.375 12.75H453.375V17.75H458.375V12.75ZM458.375 8.875H463.375V3.875H458.375V8.875ZM446.75 8.875V3.875H441.75V8.875H446.75ZM446.75 16.625H441.75V21.625H446.75V16.625ZM462.25 16.625H467.25V11.625H462.25V16.625ZM462.25 20.5H457.25V25.5H462.25V20.5ZM466.125 20.5H471.125V15.5H466.125V20.5ZM466.125 28.25V33.25H471.125V28.25H466.125ZM462.25 28.25V23.25H457.25V28.25H462.25ZM462.25 32.125V37.125H467.25V32.125H462.25ZM442.875 32.125H447.875V28.25H442.875H437.875V32.125H442.875ZM442.875 28.25V23.25H439V28.25V33.25H442.875V28.25ZM439 28.25H444V24.375H439H434V28.25H439ZM439 24.375V29.375H446.75V24.375V19.375H439V24.375ZM446.75 24.375H441.75V28.25H446.75H451.75V24.375H446.75ZM446.75 28.25V33.25H458.375V28.25V23.25H446.75V28.25ZM458.375 28.25H463.375V20.5H458.375H453.375V28.25H458.375ZM458.375 20.5V15.5H442.875V20.5V25.5H458.375V20.5ZM442.875 20.5H447.875V16.625H442.875H437.875V20.5H442.875ZM442.875 16.625V11.625H439V16.625V21.625H442.875V16.625ZM439 16.625H444V8.875H439H434V16.625H439ZM439 8.875V13.875H442.875V8.875V3.875H439V8.875ZM442.875 8.875H447.875V5H442.875H437.875V8.875H442.875ZM442.875 5V10H462.25V5V0H442.875V5ZM462.25 5H457.25V8.875H462.25H467.25V5H462.25ZM462.25 8.875V13.875H466.125V8.875V3.875H462.25V8.875ZM466.125 8.875H461.125V12.75H466.125H471.125V8.875H466.125ZM466.125 12.75V7.75H458.375V12.75V17.75H466.125V12.75ZM458.375 12.75H463.375V8.875H458.375H453.375V12.75H458.375ZM458.375 8.875V3.875H446.75V8.875V13.875H458.375V8.875ZM446.75 8.875H441.75V16.625H446.75H451.75V8.875H446.75ZM446.75 16.625V21.625H462.25V16.625V11.625H446.75V16.625ZM462.25 16.625H457.25V20.5H462.25H467.25V16.625H462.25ZM462.25 20.5V25.5H466.125V20.5V15.5H462.25V20.5ZM466.125 20.5H461.125V28.25H466.125H471.125V20.5H466.125ZM466.125 28.25V23.25H462.25V28.25V33.25H466.125V28.25ZM462.25 28.25H457.25V32.125H462.25H467.25V28.25H462.25ZM462.25 32.125V27.125H442.875V32.125V37.125H462.25V32.125ZM477.75 16.625H472.75V21.625H477.75V16.625ZM477.75 8.875V3.875H472.75V8.875H477.75ZM485.5 8.875H490.5V3.875H485.5V8.875ZM485.5 16.625V21.625H490.5V16.625H485.5ZM477.75 28.25H472.75V33.25H477.75V28.25ZM477.75 20.5V15.5H472.75V20.5H477.75ZM485.5 20.5H490.5V15.5H485.5V20.5ZM485.5 28.25V33.25H490.5V28.25H485.5ZM477.75 16.625H482.75V8.875H477.75H472.75V16.625H477.75ZM477.75 8.875V13.875H485.5V8.875V3.875H477.75V8.875ZM485.5 8.875H480.5V16.625H485.5H490.5V8.875H485.5ZM485.5 16.625V11.625H477.75V16.625V21.625H485.5V16.625ZM477.75 28.25H482.75V20.5H477.75H472.75V28.25H477.75ZM477.75 20.5V25.5H485.5V20.5V15.5H477.75V20.5ZM485.5 20.5H480.5V28.25H485.5H490.5V20.5H485.5ZM485.5 28.25V23.25H477.75V28.25V33.25H485.5V28.25ZM160 115.125H155V120.125H160V115.125ZM160 88V83H155V88H160ZM167.75 88H172.75V83H167.75V88ZM167.75 91.875H162.75V96.875H167.75V91.875ZM171.625 91.875H176.625V86.875H171.625V91.875ZM171.625 95.75H166.625V100.75H171.625V95.75ZM175.5 95.75V100.75H180.5V95.75H175.5ZM175.5 91.875V86.875H170.5V91.875H175.5ZM179.375 91.875V96.875H184.375V91.875H179.375ZM179.375 88V83H174.375V88H179.375ZM187.125 88H192.125V83H187.125V88ZM187.125 115.125V120.125H192.125V115.125H187.125ZM179.375 115.125H174.375V120.125H179.375V115.125ZM179.375 99.625H184.375V94.625H179.375V99.625ZM175.5 99.625V94.625H170.5V99.625H175.5ZM175.5 107.375V112.375H180.5V107.375H175.5ZM171.625 107.375H166.625V112.375H171.625V107.375ZM171.625 99.625H176.625V94.625H171.625V99.625ZM167.75 99.625V94.625H162.75V99.625H167.75ZM167.75 115.125V120.125H172.75V115.125H167.75ZM160 115.125H165V88H160H155V115.125H160ZM160 88V93H167.75V88V83H160V88ZM167.75 88H162.75V91.875H167.75H172.75V88H167.75ZM167.75 91.875V96.875H171.625V91.875V86.875H167.75V91.875ZM171.625 91.875H166.625V95.75H171.625H176.625V91.875H171.625ZM171.625 95.75V100.75H175.5V95.75V90.75H171.625V95.75ZM175.5 95.75H180.5V91.875H175.5H170.5V95.75H175.5ZM175.5 91.875V96.875H179.375V91.875V86.875H175.5V91.875ZM179.375 91.875H184.375V88H179.375H174.375V91.875H179.375ZM179.375 88V93H187.125V88V83H179.375V88ZM187.125 88H182.125V115.125H187.125H192.125V88H187.125ZM187.125 115.125V110.125H179.375V115.125V120.125H187.125V115.125ZM179.375 115.125H184.375V99.625H179.375H174.375V115.125H179.375ZM179.375 99.625V94.625H175.5V99.625V104.625H179.375V99.625ZM175.5 99.625H170.5V107.375H175.5H180.5V99.625H175.5ZM175.5 107.375V102.375H171.625V107.375V112.375H175.5V107.375ZM171.625 107.375H176.625V99.625H171.625H166.625V107.375H171.625ZM171.625 99.625V94.625H167.75V99.625V104.625H171.625V99.625ZM167.75 99.625H162.75V115.125H167.75H172.75V99.625H167.75ZM167.75 115.125V110.125H160V115.125V120.125H167.75V115.125ZM194.875 115.125H189.875V120.125H194.875V115.125ZM194.875 111.25H199.875V106.25H194.875V111.25ZM191 111.25H186V116.25H191V111.25ZM191 91.875V86.875H186V91.875H191ZM194.875 91.875V96.875H199.875V91.875H194.875ZM194.875 88V83H189.875V88H194.875ZM214.25 88H219.25V83H214.25V88ZM214.25 91.875H209.25V96.875H214.25V91.875ZM218.125 91.875H223.125V86.875H218.125V91.875ZM218.125 111.25V116.25H223.125V111.25H218.125ZM214.25 111.25V106.25H209.25V111.25H214.25ZM214.25 115.125V120.125H219.25V115.125H214.25ZM198.75 111.25H193.75V116.25H198.75V111.25ZM210.375 111.25V116.25H215.375V111.25H210.375ZM210.375 91.875H215.375V86.875H210.375V91.875ZM198.75 91.875V86.875H193.75V91.875H198.75ZM194.875 115.125H199.875V111.25H194.875H189.875V115.125H194.875ZM194.875 111.25V106.25H191V111.25V116.25H194.875V111.25ZM191 111.25H196V91.875H191H186V111.25H191ZM191 91.875V96.875H194.875V91.875V86.875H191V91.875ZM194.875 91.875H199.875V88H194.875H189.875V91.875H194.875ZM194.875 88V93H214.25V88V83H194.875V88ZM214.25 88H209.25V91.875H214.25H219.25V88H214.25ZM214.25 91.875V96.875H218.125V91.875V86.875H214.25V91.875ZM218.125 91.875H213.125V111.25H218.125H223.125V91.875H218.125ZM218.125 111.25V106.25H214.25V111.25V116.25H218.125V111.25ZM214.25 111.25H209.25V115.125H214.25H219.25V111.25H214.25ZM214.25 115.125V110.125H194.875V115.125V120.125H214.25V115.125ZM198.75 111.25V116.25H210.375V111.25V106.25H198.75V111.25ZM210.375 111.25H215.375V91.875H210.375H205.375V111.25H210.375ZM210.375 91.875V86.875H198.75V91.875V96.875H210.375V91.875ZM198.75 91.875H193.75V111.25H198.75H203.75V91.875H198.75ZM222 115.125H217V120.125H222V115.125ZM222 88V83H217V88H222ZM241.375 88H246.375V83H241.375V88ZM241.375 91.875H236.375V96.875H241.375V91.875ZM245.25 91.875H250.25V86.875H245.25V91.875ZM245.25 95.75H240.25V100.75H245.25V95.75ZM249.125 95.75H254.125V90.75H249.125V95.75ZM249.125 107.375V112.375H254.125V107.375H249.125ZM245.25 107.375V102.375H240.25V107.375H245.25ZM245.25 111.25V116.25H250.25V111.25H245.25ZM241.375 111.25V106.25H236.375V111.25H241.375ZM241.375 115.125V120.125H246.375V115.125H241.375ZM229.75 111.25H224.75V116.25H229.75V111.25ZM237.5 111.25V116.25H242.5V111.25H237.5ZM237.5 107.375V102.375H232.5V107.375H237.5ZM241.375 107.375V112.375H246.375V107.375H241.375ZM241.375 95.75H246.375V90.75H241.375V95.75ZM237.5 95.75H232.5V100.75H237.5V95.75ZM237.5 91.875H242.5V86.875H237.5V91.875ZM229.75 91.875V86.875H224.75V91.875H229.75ZM222 115.125H227V88H222H217V115.125H222ZM222 88V93H241.375V88V83H222V88ZM241.375 88H236.375V91.875H241.375H246.375V88H241.375ZM241.375 91.875V96.875H245.25V91.875V86.875H241.375V91.875ZM245.25 91.875H240.25V95.75H245.25H250.25V91.875H245.25ZM245.25 95.75V100.75H249.125V95.75V90.75H245.25V95.75ZM249.125 95.75H244.125V107.375H249.125H254.125V95.75H249.125ZM249.125 107.375V102.375H245.25V107.375V112.375H249.125V107.375ZM245.25 107.375H240.25V111.25H245.25H250.25V107.375H245.25ZM245.25 111.25V106.25H241.375V111.25V116.25H245.25V111.25ZM241.375 111.25H236.375V115.125H241.375H246.375V111.25H241.375ZM241.375 115.125V110.125H222V115.125V120.125H241.375V115.125ZM229.75 111.25V116.25H237.5V111.25V106.25H229.75V111.25ZM237.5 111.25H242.5V107.375H237.5H232.5V111.25H237.5ZM237.5 107.375V112.375H241.375V107.375V102.375H237.5V107.375ZM241.375 107.375H246.375V95.75H241.375H236.375V107.375H241.375ZM241.375 95.75V90.75H237.5V95.75V100.75H241.375V95.75ZM237.5 95.75H242.5V91.875H237.5H232.5V95.75H237.5ZM237.5 91.875V86.875H229.75V91.875V96.875H237.5V91.875ZM229.75 91.875H224.75V111.25H229.75H234.75V91.875H229.75ZM256.875 115.125H251.875V120.125H256.875V115.125ZM256.875 111.25H261.875V106.25H256.875V111.25ZM253 111.25H248V116.25H253V111.25ZM253 88V83H248V88H253ZM260.75 88H265.75V83H260.75V88ZM260.75 111.25H255.75V116.25H260.75V111.25ZM272.375 111.25V116.25H277.375V111.25H272.375ZM272.375 88V83H267.375V88H272.375ZM280.125 88H285.125V83H280.125V88ZM280.125 111.25V116.25H285.125V111.25H280.125ZM276.25 111.25V106.25H271.25V111.25H276.25ZM276.25 115.125V120.125H281.25V115.125H276.25ZM256.875 115.125H261.875V111.25H256.875H251.875V115.125H256.875ZM256.875 111.25V106.25H253V111.25V116.25H256.875V111.25ZM253 111.25H258V88H253H248V111.25H253ZM253 88V93H260.75V88V83H253V88ZM260.75 88H255.75V111.25H260.75H265.75V88H260.75ZM260.75 111.25V116.25H272.375V111.25V106.25H260.75V111.25ZM272.375 111.25H277.375V88H272.375H267.375V111.25H272.375ZM272.375 88V93H280.125V88V83H272.375V88ZM280.125 88H275.125V111.25H280.125H285.125V88H280.125ZM280.125 111.25V106.25H276.25V111.25V116.25H280.125V111.25ZM276.25 111.25H271.25V115.125H276.25H281.25V111.25H276.25ZM276.25 115.125V110.125H256.875V115.125V120.125H276.25V115.125ZM287.875 115.125H282.875V120.125H287.875V115.125ZM287.875 88V83H282.875V88H287.875ZM295.625 88H300.625V83H295.625V88ZM295.625 111.25H290.625V116.25H295.625V111.25ZM311.125 111.25H316.125V106.25H311.125V111.25ZM311.125 115.125V120.125H316.125V115.125H311.125ZM287.875 115.125H292.875V88H287.875H282.875V115.125H287.875ZM287.875 88V93H295.625V88V83H287.875V88ZM295.625 88H290.625V111.25H295.625H300.625V88H295.625ZM295.625 111.25V116.25H311.125V111.25V106.25H295.625V111.25ZM311.125 111.25H306.125V115.125H311.125H316.125V111.25H311.125ZM311.125 115.125V110.125H287.875V115.125V120.125H311.125V115.125ZM318.875 115.125H313.875V120.125H318.875V115.125ZM318.875 111.25H323.875V106.25H318.875V111.25ZM315 111.25H310V116.25H315V111.25ZM315 91.875V86.875H310V91.875H315ZM318.875 91.875V96.875H323.875V91.875H318.875ZM318.875 88V83H313.875V88H318.875ZM338.25 88H343.25V83H338.25V88ZM338.25 91.875H333.25V96.875H338.25V91.875ZM342.125 91.875H347.125V86.875H342.125V91.875ZM342.125 111.25V116.25H347.125V111.25H342.125ZM338.25 111.25V106.25H333.25V111.25H338.25ZM338.25 115.125V120.125H343.25V115.125H338.25ZM322.75 111.25H317.75V116.25H322.75V111.25ZM334.375 111.25V116.25H339.375V111.25H334.375ZM334.375 91.875H339.375V86.875H334.375V91.875ZM322.75 91.875V86.875H317.75V91.875H322.75ZM318.875 115.125H323.875V111.25H318.875H313.875V115.125H318.875ZM318.875 111.25V106.25H315V111.25V116.25H318.875V111.25ZM315 111.25H320V91.875H315H310V111.25H315ZM315 91.875V96.875H318.875V91.875V86.875H315V91.875ZM318.875 91.875H323.875V88H318.875H313.875V91.875H318.875ZM318.875 88V93H338.25V88V83H318.875V88ZM338.25 88H333.25V91.875H338.25H343.25V88H338.25ZM338.25 91.875V96.875H342.125V91.875V86.875H338.25V91.875ZM342.125 91.875H337.125V111.25H342.125H347.125V91.875H342.125ZM342.125 111.25V106.25H338.25V111.25V116.25H342.125V111.25ZM338.25 111.25H333.25V115.125H338.25H343.25V111.25H338.25ZM338.25 115.125V110.125H318.875V115.125V120.125H338.25V115.125ZM322.75 111.25V116.25H334.375V111.25V106.25H322.75V111.25ZM334.375 111.25H339.375V91.875H334.375H329.375V111.25H334.375ZM334.375 91.875V86.875H322.75V91.875V96.875H334.375V91.875ZM322.75 91.875H317.75V111.25H322.75H327.75V91.875H322.75Z" fill="black" mask="url(#path-1-outside-1_221_106)"/>
</svg>
