<svg width="503" height="460" viewBox="0 0 503 460" fill="none" xmlns="http://www.w3.org/2000/svg">
<g clip-path="url(#clip0_220_3)">
<path d="M423.187 46.7219C444.436 58.6016 461.417 73.049 471.739 86.6668C476.903 93.4802 480.297 99.9496 481.81 105.669C483.318 111.365 482.913 116.09 480.84 119.797C478.767 123.505 474.954 126.324 469.312 128.023C463.648 129.729 456.359 130.227 447.85 129.395C430.843 127.734 409.642 120.835 388.394 108.955C367.145 97.0751 350.164 82.6277 339.842 69.0099C334.678 62.1966 331.284 55.7271 329.771 50.0081C328.264 44.3121 328.668 39.5866 330.741 35.8794C332.814 32.1722 336.627 29.3525 342.269 27.6534C347.933 25.9475 355.222 25.4502 363.731 26.2813C380.738 27.9426 401.939 34.8422 423.187 46.7219Z" fill="#647A78" stroke="black" stroke-width="7"/>
<path d="M479.177 120.668C494.5 156.379 491.639 169.488 391.94 221.206C313.427 266.071 219.083 277.264 203.759 241.553C188.435 205.841 226.215 148.471 299.719 116.93C373.224 85.3884 463.853 84.9569 479.177 120.668Z" fill="#647A78"/>
<path d="M213.729 255.885C256.724 269.593 275.995 275.175 388.825 223.483C530.272 158.678 480.423 115.06 450.513 101.352C420.604 87.6432 408.764 96.9899 364.523 94.4974" stroke="black" stroke-width="7"/>
<path d="M375.116 110.698C380.037 128.146 322.151 163.04 271.679 166.779C197.528 156.809 175.096 158.678 164.503 133.754C170.111 94.4975 210.03 58.3704 266.693 50.8793C320.282 39.6633 368.262 86.3971 375.116 110.698Z" fill="#00FEF1"/>
<path d="M333.367 149.332C306.449 165.782 271.471 166.156 257.347 164.286C248.416 162.625 224.386 166.805 218.091 164.286C208.744 160.548 163.88 151.824 163.88 127.523C163.88 94.7275 206.252 59.603 257.347 52.1256C308.443 44.6482 329.006 53.9949 360.785 88.8894C392.564 123.784 367.016 128.769 333.367 149.332Z" stroke="black" stroke-width="7"/>
<path d="M170.868 145.921C208.91 156.167 241.372 172.147 263.113 189.555C273.988 198.263 282.046 207.22 286.833 215.862C291.609 224.484 293.029 232.583 291.07 239.854C289.111 247.126 283.816 253.416 275.356 258.473C266.876 263.541 255.409 267.239 241.631 269.307C214.088 273.44 177.992 270.953 139.95 260.707C101.908 250.46 69.4469 234.48 47.7061 217.072C36.8313 208.365 28.773 199.407 23.9857 190.765C19.2098 182.144 17.7902 174.045 19.7488 166.773C21.7075 159.502 27.0028 153.211 35.4629 148.155C43.9432 143.087 55.4102 139.388 69.1874 137.321C96.7304 133.188 132.826 135.674 170.868 145.921Z" fill="#647A78" stroke="black" stroke-width="7"/>
<ellipse cx="322.151" cy="195.442" rx="23.0553" ry="11.8392" fill="black"/>
<ellipse cx="418.227" cy="149.209" rx="11.1803" ry="19.0323" transform="rotate(19.6946 418.227 149.209)" fill="black"/>
<path d="M228.06 167.402C171.357 174.879 151.417 222.236 191.297 269.593M175.096 148.085C119.015 158.678 89.1056 214.136 135.839 256.508M124 136.869C61.0654 151.824 37.387 184.849 81.6283 235.945" stroke="black" stroke-width="7"/>
<mask id="path-10-outside-1_220_3" maskUnits="userSpaceOnUse" x="4" y="316" width="491" height="121" fill="black">
<rect fill="white" x="4" y="316" width="491" height="121"/>
<path d="M9.5 348.125V321H28.875V324.875H32.75V328.75H36.625V340.375H32.75V344.25H28.875V348.125H9.5ZM17.25 344.25H25V340.375H28.875V328.75H25V324.875H17.25V344.25ZM44.375 348.125V344.25H40.5V324.875H44.375V321H63.75V324.875H67.625V344.25H63.75V348.125H44.375ZM48.25 344.25H59.875V324.875H48.25V344.25ZM71.5 348.125V321H79.25V324.875H83.125V328.75H87V324.875H90.875V321H98.625V348.125H90.875V332.625H87V340.375H83.125V332.625H79.25V348.125H71.5ZM102.5 348.125V328.75H106.375V324.875H110.25V321H121.875V324.875H125.75V328.75H129.625V348.125H121.875V340.375H110.25V348.125H102.5ZM110.25 336.5H121.875V328.75H118V324.875H114.125V328.75H110.25V336.5ZM137.375 348.125V344.25H145.125V324.875H137.375V321H160.625V324.875H152.875V344.25H160.625V348.125H137.375ZM164.5 348.125V321H172.25V324.875H176.125V328.75H180V332.625H183.875V321H191.625V348.125H183.875V340.375H180V336.5H176.125V332.625H172.25V348.125H164.5ZM230.375 348.125V344.25H238.125V324.875H230.375V321H253.625V324.875H245.875V344.25H253.625V348.125H230.375ZM257.5 348.125V321H265.25V324.875H269.125V328.75H273V332.625H276.875V321H284.625V348.125H276.875V340.375H273V336.5H269.125V332.625H265.25V348.125H257.5ZM300.125 348.125V344.25H296.25V340.375H292.375V336.5H288.5V321H296.25V332.625H300.125V336.5H304V332.625H307.875V321H315.625V336.5H311.75V340.375H307.875V344.25H304V348.125H300.125ZM319.5 348.125V328.75H323.375V324.875H327.25V321H338.875V324.875H342.75V328.75H346.625V348.125H338.875V340.375H327.25V348.125H319.5ZM327.25 336.5H338.875V328.75H335V324.875H331.125V328.75H327.25V336.5ZM350.5 348.125V321H369.875V324.875H373.75V328.75H377.625V340.375H373.75V344.25H369.875V348.125H350.5ZM358.25 344.25H366V340.375H369.875V328.75H366V324.875H358.25V344.25ZM381.5 348.125V321H408.625V324.875H389.25V332.625H404.75V336.5H389.25V344.25H408.625V348.125H381.5ZM412.5 348.125V321H435.75V324.875H439.625V336.5H431.875V340.375H435.75V344.25H439.625V348.125H428V344.25H424.125V340.375H420.25V348.125H412.5ZM420.25 336.5H428V332.625H431.875V324.875H420.25V336.5ZM447.375 348.125V344.25H443.5V340.375H451.25V344.25H462.875V336.5H447.375V332.625H443.5V324.875H447.375V321H466.75V324.875H470.625V328.75H462.875V324.875H451.25V332.625H466.75V336.5H470.625V344.25H466.75V348.125H447.375ZM482.25 332.625V324.875H490V332.625H482.25ZM482.25 344.25V336.5H490V344.25H482.25ZM164.5 431.125V404H172.25V407.875H176.125V411.75H180V407.875H183.875V404H191.625V431.125H183.875V415.625H180V423.375H176.125V415.625H172.25V431.125H164.5ZM199.375 431.125V427.25H195.5V407.875H199.375V404H218.75V407.875H222.625V427.25H218.75V431.125H199.375ZM203.25 427.25H214.875V407.875H203.25V427.25ZM226.5 431.125V404H245.875V407.875H249.75V411.75H253.625V423.375H249.75V427.25H245.875V431.125H226.5ZM234.25 427.25H242V423.375H245.875V411.75H242V407.875H234.25V427.25ZM261.375 431.125V427.25H257.5V404H265.25V427.25H276.875V404H284.625V427.25H280.75V431.125H261.375ZM292.375 431.125V404H300.125V427.25H315.625V431.125H292.375ZM323.375 431.125V427.25H319.5V407.875H323.375V404H342.75V407.875H346.625V427.25H342.75V431.125H323.375ZM327.25 427.25H338.875V407.875H327.25V427.25Z"/>
</mask>
<path d="M9.5 348.125V321H28.875V324.875H32.75V328.75H36.625V340.375H32.75V344.25H28.875V348.125H9.5ZM17.25 344.25H25V340.375H28.875V328.75H25V324.875H17.25V344.25ZM44.375 348.125V344.25H40.5V324.875H44.375V321H63.75V324.875H67.625V344.25H63.75V348.125H44.375ZM48.25 344.25H59.875V324.875H48.25V344.25ZM71.5 348.125V321H79.25V324.875H83.125V328.75H87V324.875H90.875V321H98.625V348.125H90.875V332.625H87V340.375H83.125V332.625H79.25V348.125H71.5ZM102.5 348.125V328.75H106.375V324.875H110.25V321H121.875V324.875H125.75V328.75H129.625V348.125H121.875V340.375H110.25V348.125H102.5ZM110.25 336.5H121.875V328.75H118V324.875H114.125V328.75H110.25V336.5ZM137.375 348.125V344.25H145.125V324.875H137.375V321H160.625V324.875H152.875V344.25H160.625V348.125H137.375ZM164.5 348.125V321H172.25V324.875H176.125V328.75H180V332.625H183.875V321H191.625V348.125H183.875V340.375H180V336.5H176.125V332.625H172.25V348.125H164.5ZM230.375 348.125V344.25H238.125V324.875H230.375V321H253.625V324.875H245.875V344.25H253.625V348.125H230.375ZM257.5 348.125V321H265.25V324.875H269.125V328.75H273V332.625H276.875V321H284.625V348.125H276.875V340.375H273V336.5H269.125V332.625H265.25V348.125H257.5ZM300.125 348.125V344.25H296.25V340.375H292.375V336.5H288.5V321H296.25V332.625H300.125V336.5H304V332.625H307.875V321H315.625V336.5H311.75V340.375H307.875V344.25H304V348.125H300.125ZM319.5 348.125V328.75H323.375V324.875H327.25V321H338.875V324.875H342.75V328.75H346.625V348.125H338.875V340.375H327.25V348.125H319.5ZM327.25 336.5H338.875V328.75H335V324.875H331.125V328.75H327.25V336.5ZM350.5 348.125V321H369.875V324.875H373.75V328.75H377.625V340.375H373.75V344.25H369.875V348.125H350.5ZM358.25 344.25H366V340.375H369.875V328.75H366V324.875H358.25V344.25ZM381.5 348.125V321H408.625V324.875H389.25V332.625H404.75V336.5H389.25V344.25H408.625V348.125H381.5ZM412.5 348.125V321H435.75V324.875H439.625V336.5H431.875V340.375H435.75V344.25H439.625V348.125H428V344.25H424.125V340.375H420.25V348.125H412.5ZM420.25 336.5H428V332.625H431.875V324.875H420.25V336.5ZM447.375 348.125V344.25H443.5V340.375H451.25V344.25H462.875V336.5H447.375V332.625H443.5V324.875H447.375V321H466.75V324.875H470.625V328.75H462.875V324.875H451.25V332.625H466.75V336.5H470.625V344.25H466.75V348.125H447.375ZM482.25 332.625V324.875H490V332.625H482.25ZM482.25 344.25V336.5H490V344.25H482.25ZM164.5 431.125V404H172.25V407.875H176.125V411.75H180V407.875H183.875V404H191.625V431.125H183.875V415.625H180V423.375H176.125V415.625H172.25V431.125H164.5ZM199.375 431.125V427.25H195.5V407.875H199.375V404H218.75V407.875H222.625V427.25H218.75V431.125H199.375ZM203.25 427.25H214.875V407.875H203.25V427.25ZM226.5 431.125V404H245.875V407.875H249.75V411.75H253.625V423.375H249.75V427.25H245.875V431.125H226.5ZM234.25 427.25H242V423.375H245.875V411.75H242V407.875H234.25V427.25ZM261.375 431.125V427.25H257.5V404H265.25V427.25H276.875V404H284.625V427.25H280.75V431.125H261.375ZM292.375 431.125V404H300.125V427.25H315.625V431.125H292.375ZM323.375 431.125V427.25H319.5V407.875H323.375V404H342.75V407.875H346.625V427.25H342.75V431.125H323.375ZM327.25 427.25H338.875V407.875H327.25V427.25Z" fill="#DCFF6A"/>
<path d="M9.5 348.125H4.5V353.125H9.5V348.125ZM9.5 321V316H4.5V321H9.5ZM28.875 321H33.875V316H28.875V321ZM28.875 324.875H23.875V329.875H28.875V324.875ZM32.75 324.875H37.75V319.875H32.75V324.875ZM32.75 328.75H27.75V333.75H32.75V328.75ZM36.625 328.75H41.625V323.75H36.625V328.75ZM36.625 340.375V345.375H41.625V340.375H36.625ZM32.75 340.375V335.375H27.75V340.375H32.75ZM32.75 344.25V349.25H37.75V344.25H32.75ZM28.875 344.25V339.25H23.875V344.25H28.875ZM28.875 348.125V353.125H33.875V348.125H28.875ZM17.25 344.25H12.25V349.25H17.25V344.25ZM25 344.25V349.25H30V344.25H25ZM25 340.375V335.375H20V340.375H25ZM28.875 340.375V345.375H33.875V340.375H28.875ZM28.875 328.75H33.875V323.75H28.875V328.75ZM25 328.75H20V333.75H25V328.75ZM25 324.875H30V319.875H25V324.875ZM17.25 324.875V319.875H12.25V324.875H17.25ZM9.5 348.125H14.5V321H9.5H4.5V348.125H9.5ZM9.5 321V326H28.875V321V316H9.5V321ZM28.875 321H23.875V324.875H28.875H33.875V321H28.875ZM28.875 324.875V329.875H32.75V324.875V319.875H28.875V324.875ZM32.75 324.875H27.75V328.75H32.75H37.75V324.875H32.75ZM32.75 328.75V333.75H36.625V328.75V323.75H32.75V328.75ZM36.625 328.75H31.625V340.375H36.625H41.625V328.75H36.625ZM36.625 340.375V335.375H32.75V340.375V345.375H36.625V340.375ZM32.75 340.375H27.75V344.25H32.75H37.75V340.375H32.75ZM32.75 344.25V339.25H28.875V344.25V349.25H32.75V344.25ZM28.875 344.25H23.875V348.125H28.875H33.875V344.25H28.875ZM28.875 348.125V343.125H9.5V348.125V353.125H28.875V348.125ZM17.25 344.25V349.25H25V344.25V339.25H17.25V344.25ZM25 344.25H30V340.375H25H20V344.25H25ZM25 340.375V345.375H28.875V340.375V335.375H25V340.375ZM28.875 340.375H33.875V328.75H28.875H23.875V340.375H28.875ZM28.875 328.75V323.75H25V328.75V333.75H28.875V328.75ZM25 328.75H30V324.875H25H20V328.75H25ZM25 324.875V319.875H17.25V324.875V329.875H25V324.875ZM17.25 324.875H12.25V344.25H17.25H22.25V324.875H17.25ZM44.375 348.125H39.375V353.125H44.375V348.125ZM44.375 344.25H49.375V339.25H44.375V344.25ZM40.5 344.25H35.5V349.25H40.5V344.25ZM40.5 324.875V319.875H35.5V324.875H40.5ZM44.375 324.875V329.875H49.375V324.875H44.375ZM44.375 321V316H39.375V321H44.375ZM63.75 321H68.75V316H63.75V321ZM63.75 324.875H58.75V329.875H63.75V324.875ZM67.625 324.875H72.625V319.875H67.625V324.875ZM67.625 344.25V349.25H72.625V344.25H67.625ZM63.75 344.25V339.25H58.75V344.25H63.75ZM63.75 348.125V353.125H68.75V348.125H63.75ZM48.25 344.25H43.25V349.25H48.25V344.25ZM59.875 344.25V349.25H64.875V344.25H59.875ZM59.875 324.875H64.875V319.875H59.875V324.875ZM48.25 324.875V319.875H43.25V324.875H48.25ZM44.375 348.125H49.375V344.25H44.375H39.375V348.125H44.375ZM44.375 344.25V339.25H40.5V344.25V349.25H44.375V344.25ZM40.5 344.25H45.5V324.875H40.5H35.5V344.25H40.5ZM40.5 324.875V329.875H44.375V324.875V319.875H40.5V324.875ZM44.375 324.875H49.375V321H44.375H39.375V324.875H44.375ZM44.375 321V326H63.75V321V316H44.375V321ZM63.75 321H58.75V324.875H63.75H68.75V321H63.75ZM63.75 324.875V329.875H67.625V324.875V319.875H63.75V324.875ZM67.625 324.875H62.625V344.25H67.625H72.625V324.875H67.625ZM67.625 344.25V339.25H63.75V344.25V349.25H67.625V344.25ZM63.75 344.25H58.75V348.125H63.75H68.75V344.25H63.75ZM63.75 348.125V343.125H44.375V348.125V353.125H63.75V348.125ZM48.25 344.25V349.25H59.875V344.25V339.25H48.25V344.25ZM59.875 344.25H64.875V324.875H59.875H54.875V344.25H59.875ZM59.875 324.875V319.875H48.25V324.875V329.875H59.875V324.875ZM48.25 324.875H43.25V344.25H48.25H53.25V324.875H48.25ZM71.5 348.125H66.5V353.125H71.5V348.125ZM71.5 321V316H66.5V321H71.5ZM79.25 321H84.25V316H79.25V321ZM79.25 324.875H74.25V329.875H79.25V324.875ZM83.125 324.875H88.125V319.875H83.125V324.875ZM83.125 328.75H78.125V333.75H83.125V328.75ZM87 328.75V333.75H92V328.75H87ZM87 324.875V319.875H82V324.875H87ZM90.875 324.875V329.875H95.875V324.875H90.875ZM90.875 321V316H85.875V321H90.875ZM98.625 321H103.625V316H98.625V321ZM98.625 348.125V353.125H103.625V348.125H98.625ZM90.875 348.125H85.875V353.125H90.875V348.125ZM90.875 332.625H95.875V327.625H90.875V332.625ZM87 332.625V327.625H82V332.625H87ZM87 340.375V345.375H92V340.375H87ZM83.125 340.375H78.125V345.375H83.125V340.375ZM83.125 332.625H88.125V327.625H83.125V332.625ZM79.25 332.625V327.625H74.25V332.625H79.25ZM79.25 348.125V353.125H84.25V348.125H79.25ZM71.5 348.125H76.5V321H71.5H66.5V348.125H71.5ZM71.5 321V326H79.25V321V316H71.5V321ZM79.25 321H74.25V324.875H79.25H84.25V321H79.25ZM79.25 324.875V329.875H83.125V324.875V319.875H79.25V324.875ZM83.125 324.875H78.125V328.75H83.125H88.125V324.875H83.125ZM83.125 328.75V333.75H87V328.75V323.75H83.125V328.75ZM87 328.75H92V324.875H87H82V328.75H87ZM87 324.875V329.875H90.875V324.875V319.875H87V324.875ZM90.875 324.875H95.875V321H90.875H85.875V324.875H90.875ZM90.875 321V326H98.625V321V316H90.875V321ZM98.625 321H93.625V348.125H98.625H103.625V321H98.625ZM98.625 348.125V343.125H90.875V348.125V353.125H98.625V348.125ZM90.875 348.125H95.875V332.625H90.875H85.875V348.125H90.875ZM90.875 332.625V327.625H87V332.625V337.625H90.875V332.625ZM87 332.625H82V340.375H87H92V332.625H87ZM87 340.375V335.375H83.125V340.375V345.375H87V340.375ZM83.125 340.375H88.125V332.625H83.125H78.125V340.375H83.125ZM83.125 332.625V327.625H79.25V332.625V337.625H83.125V332.625ZM79.25 332.625H74.25V348.125H79.25H84.25V332.625H79.25ZM79.25 348.125V343.125H71.5V348.125V353.125H79.25V348.125ZM102.5 348.125H97.5V353.125H102.5V348.125ZM102.5 328.75V323.75H97.5V328.75H102.5ZM106.375 328.75V333.75H111.375V328.75H106.375ZM106.375 324.875V319.875H101.375V324.875H106.375ZM110.25 324.875V329.875H115.25V324.875H110.25ZM110.25 321V316H105.25V321H110.25ZM121.875 321H126.875V316H121.875V321ZM121.875 324.875H116.875V329.875H121.875V324.875ZM125.75 324.875H130.75V319.875H125.75V324.875ZM125.75 328.75H120.75V333.75H125.75V328.75ZM129.625 328.75H134.625V323.75H129.625V328.75ZM129.625 348.125V353.125H134.625V348.125H129.625ZM121.875 348.125H116.875V353.125H121.875V348.125ZM121.875 340.375H126.875V335.375H121.875V340.375ZM110.25 340.375V335.375H105.25V340.375H110.25ZM110.25 348.125V353.125H115.25V348.125H110.25ZM110.25 336.5H105.25V341.5H110.25V336.5ZM121.875 336.5V341.5H126.875V336.5H121.875ZM121.875 328.75H126.875V323.75H121.875V328.75ZM118 328.75H113V333.75H118V328.75ZM118 324.875H123V319.875H118V324.875ZM114.125 324.875V319.875H109.125V324.875H114.125ZM114.125 328.75V333.75H119.125V328.75H114.125ZM110.25 328.75V323.75H105.25V328.75H110.25ZM102.5 348.125H107.5V328.75H102.5H97.5V348.125H102.5ZM102.5 328.75V333.75H106.375V328.75V323.75H102.5V328.75ZM106.375 328.75H111.375V324.875H106.375H101.375V328.75H106.375ZM106.375 324.875V329.875H110.25V324.875V319.875H106.375V324.875ZM110.25 324.875H115.25V321H110.25H105.25V324.875H110.25ZM110.25 321V326H121.875V321V316H110.25V321ZM121.875 321H116.875V324.875H121.875H126.875V321H121.875ZM121.875 324.875V329.875H125.75V324.875V319.875H121.875V324.875ZM125.75 324.875H120.75V328.75H125.75H130.75V324.875H125.75ZM125.75 328.75V333.75H129.625V328.75V323.75H125.75V328.75ZM129.625 328.75H124.625V348.125H129.625H134.625V328.75H129.625ZM129.625 348.125V343.125H121.875V348.125V353.125H129.625V348.125ZM121.875 348.125H126.875V340.375H121.875H116.875V348.125H121.875ZM121.875 340.375V335.375H110.25V340.375V345.375H121.875V340.375ZM110.25 340.375H105.25V348.125H110.25H115.25V340.375H110.25ZM110.25 348.125V343.125H102.5V348.125V353.125H110.25V348.125ZM110.25 336.5V341.5H121.875V336.5V331.5H110.25V336.5ZM121.875 336.5H126.875V328.75H121.875H116.875V336.5H121.875ZM121.875 328.75V323.75H118V328.75V333.75H121.875V328.75ZM118 328.75H123V324.875H118H113V328.75H118ZM118 324.875V319.875H114.125V324.875V329.875H118V324.875ZM114.125 324.875H109.125V328.75H114.125H119.125V324.875H114.125ZM114.125 328.75V323.75H110.25V328.75V333.75H114.125V328.75ZM110.25 328.75H105.25V336.5H110.25H115.25V328.75H110.25ZM137.375 348.125H132.375V353.125H137.375V348.125ZM137.375 344.25V339.25H132.375V344.25H137.375ZM145.125 344.25V349.25H150.125V344.25H145.125ZM145.125 324.875H150.125V319.875H145.125V324.875ZM137.375 324.875H132.375V329.875H137.375V324.875ZM137.375 321V316H132.375V321H137.375ZM160.625 321H165.625V316H160.625V321ZM160.625 324.875V329.875H165.625V324.875H160.625ZM152.875 324.875V319.875H147.875V324.875H152.875ZM152.875 344.25H147.875V349.25H152.875V344.25ZM160.625 344.25H165.625V339.25H160.625V344.25ZM160.625 348.125V353.125H165.625V348.125H160.625ZM137.375 348.125H142.375V344.25H137.375H132.375V348.125H137.375ZM137.375 344.25V349.25H145.125V344.25V339.25H137.375V344.25ZM145.125 344.25H150.125V324.875H145.125H140.125V344.25H145.125ZM145.125 324.875V319.875H137.375V324.875V329.875H145.125V324.875ZM137.375 324.875H142.375V321H137.375H132.375V324.875H137.375ZM137.375 321V326H160.625V321V316H137.375V321ZM160.625 321H155.625V324.875H160.625H165.625V321H160.625ZM160.625 324.875V319.875H152.875V324.875V329.875H160.625V324.875ZM152.875 324.875H147.875V344.25H152.875H157.875V324.875H152.875ZM152.875 344.25V349.25H160.625V344.25V339.25H152.875V344.25ZM160.625 344.25H155.625V348.125H160.625H165.625V344.25H160.625ZM160.625 348.125V343.125H137.375V348.125V353.125H160.625V348.125ZM164.5 348.125H159.5V353.125H164.5V348.125ZM164.5 321V316H159.5V321H164.5ZM172.25 321H177.25V316H172.25V321ZM172.25 324.875H167.25V329.875H172.25V324.875ZM176.125 324.875H181.125V319.875H176.125V324.875ZM176.125 328.75H171.125V333.75H176.125V328.75ZM180 328.75H185V323.75H180V328.75ZM180 332.625H175V337.625H180V332.625ZM183.875 332.625V337.625H188.875V332.625H183.875ZM183.875 321V316H178.875V321H183.875ZM191.625 321H196.625V316H191.625V321ZM191.625 348.125V353.125H196.625V348.125H191.625ZM183.875 348.125H178.875V353.125H183.875V348.125ZM183.875 340.375H188.875V335.375H183.875V340.375ZM180 340.375H175V345.375H180V340.375ZM180 336.5H185V331.5H180V336.5ZM176.125 336.5H171.125V341.5H176.125V336.5ZM176.125 332.625H181.125V327.625H176.125V332.625ZM172.25 332.625V327.625H167.25V332.625H172.25ZM172.25 348.125V353.125H177.25V348.125H172.25ZM164.5 348.125H169.5V321H164.5H159.5V348.125H164.5ZM164.5 321V326H172.25V321V316H164.5V321ZM172.25 321H167.25V324.875H172.25H177.25V321H172.25ZM172.25 324.875V329.875H176.125V324.875V319.875H172.25V324.875ZM176.125 324.875H171.125V328.75H176.125H181.125V324.875H176.125ZM176.125 328.75V333.75H180V328.75V323.75H176.125V328.75ZM180 328.75H175V332.625H180H185V328.75H180ZM180 332.625V337.625H183.875V332.625V327.625H180V332.625ZM183.875 332.625H188.875V321H183.875H178.875V332.625H183.875ZM183.875 321V326H191.625V321V316H183.875V321ZM191.625 321H186.625V348.125H191.625H196.625V321H191.625ZM191.625 348.125V343.125H183.875V348.125V353.125H191.625V348.125ZM183.875 348.125H188.875V340.375H183.875H178.875V348.125H183.875ZM183.875 340.375V335.375H180V340.375V345.375H183.875V340.375ZM180 340.375H185V336.5H180H175V340.375H180ZM180 336.5V331.5H176.125V336.5V341.5H180V336.5ZM176.125 336.5H181.125V332.625H176.125H171.125V336.5H176.125ZM176.125 332.625V327.625H172.25V332.625V337.625H176.125V332.625ZM172.25 332.625H167.25V348.125H172.25H177.25V332.625H172.25ZM172.25 348.125V343.125H164.5V348.125V353.125H172.25V348.125ZM230.375 348.125H225.375V353.125H230.375V348.125ZM230.375 344.25V339.25H225.375V344.25H230.375ZM238.125 344.25V349.25H243.125V344.25H238.125ZM238.125 324.875H243.125V319.875H238.125V324.875ZM230.375 324.875H225.375V329.875H230.375V324.875ZM230.375 321V316H225.375V321H230.375ZM253.625 321H258.625V316H253.625V321ZM253.625 324.875V329.875H258.625V324.875H253.625ZM245.875 324.875V319.875H240.875V324.875H245.875ZM245.875 344.25H240.875V349.25H245.875V344.25ZM253.625 344.25H258.625V339.25H253.625V344.25ZM253.625 348.125V353.125H258.625V348.125H253.625ZM230.375 348.125H235.375V344.25H230.375H225.375V348.125H230.375ZM230.375 344.25V349.25H238.125V344.25V339.25H230.375V344.25ZM238.125 344.25H243.125V324.875H238.125H233.125V344.25H238.125ZM238.125 324.875V319.875H230.375V324.875V329.875H238.125V324.875ZM230.375 324.875H235.375V321H230.375H225.375V324.875H230.375ZM230.375 321V326H253.625V321V316H230.375V321ZM253.625 321H248.625V324.875H253.625H258.625V321H253.625ZM253.625 324.875V319.875H245.875V324.875V329.875H253.625V324.875ZM245.875 324.875H240.875V344.25H245.875H250.875V324.875H245.875ZM245.875 344.25V349.25H253.625V344.25V339.25H245.875V344.25ZM253.625 344.25H248.625V348.125H253.625H258.625V344.25H253.625ZM253.625 348.125V343.125H230.375V348.125V353.125H253.625V348.125ZM257.5 348.125H252.5V353.125H257.5V348.125ZM257.5 321V316H252.5V321H257.5ZM265.25 321H270.25V316H265.25V321ZM265.25 324.875H260.25V329.875H265.25V324.875ZM269.125 324.875H274.125V319.875H269.125V324.875ZM269.125 328.75H264.125V333.75H269.125V328.75ZM273 328.75H278V323.75H273V328.75ZM273 332.625H268V337.625H273V332.625ZM276.875 332.625V337.625H281.875V332.625H276.875ZM276.875 321V316H271.875V321H276.875ZM284.625 321H289.625V316H284.625V321ZM284.625 348.125V353.125H289.625V348.125H284.625ZM276.875 348.125H271.875V353.125H276.875V348.125ZM276.875 340.375H281.875V335.375H276.875V340.375ZM273 340.375H268V345.375H273V340.375ZM273 336.5H278V331.5H273V336.5ZM269.125 336.5H264.125V341.5H269.125V336.5ZM269.125 332.625H274.125V327.625H269.125V332.625ZM265.25 332.625V327.625H260.25V332.625H265.25ZM265.25 348.125V353.125H270.25V348.125H265.25ZM257.5 348.125H262.5V321H257.5H252.5V348.125H257.5ZM257.5 321V326H265.25V321V316H257.5V321ZM265.25 321H260.25V324.875H265.25H270.25V321H265.25ZM265.25 324.875V329.875H269.125V324.875V319.875H265.25V324.875ZM269.125 324.875H264.125V328.75H269.125H274.125V324.875H269.125ZM269.125 328.75V333.75H273V328.75V323.75H269.125V328.75ZM273 328.75H268V332.625H273H278V328.75H273ZM273 332.625V337.625H276.875V332.625V327.625H273V332.625ZM276.875 332.625H281.875V321H276.875H271.875V332.625H276.875ZM276.875 321V326H284.625V321V316H276.875V321ZM284.625 321H279.625V348.125H284.625H289.625V321H284.625ZM284.625 348.125V343.125H276.875V348.125V353.125H284.625V348.125ZM276.875 348.125H281.875V340.375H276.875H271.875V348.125H276.875ZM276.875 340.375V335.375H273V340.375V345.375H276.875V340.375ZM273 340.375H278V336.5H273H268V340.375H273ZM273 336.5V331.5H269.125V336.5V341.5H273V336.5ZM269.125 336.5H274.125V332.625H269.125H264.125V336.5H269.125ZM269.125 332.625V327.625H265.25V332.625V337.625H269.125V332.625ZM265.25 332.625H260.25V348.125H265.25H270.25V332.625H265.25ZM265.25 348.125V343.125H257.5V348.125V353.125H265.25V348.125ZM300.125 348.125H295.125V353.125H300.125V348.125ZM300.125 344.25H305.125V339.25H300.125V344.25ZM296.25 344.25H291.25V349.25H296.25V344.25ZM296.25 340.375H301.25V335.375H296.25V340.375ZM292.375 340.375H287.375V345.375H292.375V340.375ZM292.375 336.5H297.375V331.5H292.375V336.5ZM288.5 336.5H283.5V341.5H288.5V336.5ZM288.5 321V316H283.5V321H288.5ZM296.25 321H301.25V316H296.25V321ZM296.25 332.625H291.25V337.625H296.25V332.625ZM300.125 332.625H305.125V327.625H300.125V332.625ZM300.125 336.5H295.125V341.5H300.125V336.5ZM304 336.5V341.5H309V336.5H304ZM304 332.625V327.625H299V332.625H304ZM307.875 332.625V337.625H312.875V332.625H307.875ZM307.875 321V316H302.875V321H307.875ZM315.625 321H320.625V316H315.625V321ZM315.625 336.5V341.5H320.625V336.5H315.625ZM311.75 336.5V331.5H306.75V336.5H311.75ZM311.75 340.375V345.375H316.75V340.375H311.75ZM307.875 340.375V335.375H302.875V340.375H307.875ZM307.875 344.25V349.25H312.875V344.25H307.875ZM304 344.25V339.25H299V344.25H304ZM304 348.125V353.125H309V348.125H304ZM300.125 348.125H305.125V344.25H300.125H295.125V348.125H300.125ZM300.125 344.25V339.25H296.25V344.25V349.25H300.125V344.25ZM296.25 344.25H301.25V340.375H296.25H291.25V344.25H296.25ZM296.25 340.375V335.375H292.375V340.375V345.375H296.25V340.375ZM292.375 340.375H297.375V336.5H292.375H287.375V340.375H292.375ZM292.375 336.5V331.5H288.5V336.5V341.5H292.375V336.5ZM288.5 336.5H293.5V321H288.5H283.5V336.5H288.5ZM288.5 321V326H296.25V321V316H288.5V321ZM296.25 321H291.25V332.625H296.25H301.25V321H296.25ZM296.25 332.625V337.625H300.125V332.625V327.625H296.25V332.625ZM300.125 332.625H295.125V336.5H300.125H305.125V332.625H300.125ZM300.125 336.5V341.5H304V336.5V331.5H300.125V336.5ZM304 336.5H309V332.625H304H299V336.5H304ZM304 332.625V337.625H307.875V332.625V327.625H304V332.625ZM307.875 332.625H312.875V321H307.875H302.875V332.625H307.875ZM307.875 321V326H315.625V321V316H307.875V321ZM315.625 321H310.625V336.5H315.625H320.625V321H315.625ZM315.625 336.5V331.5H311.75V336.5V341.5H315.625V336.5ZM311.75 336.5H306.75V340.375H311.75H316.75V336.5H311.75ZM311.75 340.375V335.375H307.875V340.375V345.375H311.75V340.375ZM307.875 340.375H302.875V344.25H307.875H312.875V340.375H307.875ZM307.875 344.25V339.25H304V344.25V349.25H307.875V344.25ZM304 344.25H299V348.125H304H309V344.25H304ZM304 348.125V343.125H300.125V348.125V353.125H304V348.125ZM319.5 348.125H314.5V353.125H319.5V348.125ZM319.5 328.75V323.75H314.5V328.75H319.5ZM323.375 328.75V333.75H328.375V328.75H323.375ZM323.375 324.875V319.875H318.375V324.875H323.375ZM327.25 324.875V329.875H332.25V324.875H327.25ZM327.25 321V316H322.25V321H327.25ZM338.875 321H343.875V316H338.875V321ZM338.875 324.875H333.875V329.875H338.875V324.875ZM342.75 324.875H347.75V319.875H342.75V324.875ZM342.75 328.75H337.75V333.75H342.75V328.75ZM346.625 328.75H351.625V323.75H346.625V328.75ZM346.625 348.125V353.125H351.625V348.125H346.625ZM338.875 348.125H333.875V353.125H338.875V348.125ZM338.875 340.375H343.875V335.375H338.875V340.375ZM327.25 340.375V335.375H322.25V340.375H327.25ZM327.25 348.125V353.125H332.25V348.125H327.25ZM327.25 336.5H322.25V341.5H327.25V336.5ZM338.875 336.5V341.5H343.875V336.5H338.875ZM338.875 328.75H343.875V323.75H338.875V328.75ZM335 328.75H330V333.75H335V328.75ZM335 324.875H340V319.875H335V324.875ZM331.125 324.875V319.875H326.125V324.875H331.125ZM331.125 328.75V333.75H336.125V328.75H331.125ZM327.25 328.75V323.75H322.25V328.75H327.25ZM319.5 348.125H324.5V328.75H319.5H314.5V348.125H319.5ZM319.5 328.75V333.75H323.375V328.75V323.75H319.5V328.75ZM323.375 328.75H328.375V324.875H323.375H318.375V328.75H323.375ZM323.375 324.875V329.875H327.25V324.875V319.875H323.375V324.875ZM327.25 324.875H332.25V321H327.25H322.25V324.875H327.25ZM327.25 321V326H338.875V321V316H327.25V321ZM338.875 321H333.875V324.875H338.875H343.875V321H338.875ZM338.875 324.875V329.875H342.75V324.875V319.875H338.875V324.875ZM342.75 324.875H337.75V328.75H342.75H347.75V324.875H342.75ZM342.75 328.75V333.75H346.625V328.75V323.75H342.75V328.75ZM346.625 328.75H341.625V348.125H346.625H351.625V328.75H346.625ZM346.625 348.125V343.125H338.875V348.125V353.125H346.625V348.125ZM338.875 348.125H343.875V340.375H338.875H333.875V348.125H338.875ZM338.875 340.375V335.375H327.25V340.375V345.375H338.875V340.375ZM327.25 340.375H322.25V348.125H327.25H332.25V340.375H327.25ZM327.25 348.125V343.125H319.5V348.125V353.125H327.25V348.125ZM327.25 336.5V341.5H338.875V336.5V331.5H327.25V336.5ZM338.875 336.5H343.875V328.75H338.875H333.875V336.5H338.875ZM338.875 328.75V323.75H335V328.75V333.75H338.875V328.75ZM335 328.75H340V324.875H335H330V328.75H335ZM335 324.875V319.875H331.125V324.875V329.875H335V324.875ZM331.125 324.875H326.125V328.75H331.125H336.125V324.875H331.125ZM331.125 328.75V323.75H327.25V328.75V333.75H331.125V328.75ZM327.25 328.75H322.25V336.5H327.25H332.25V328.75H327.25ZM350.5 348.125H345.5V353.125H350.5V348.125ZM350.5 321V316H345.5V321H350.5ZM369.875 321H374.875V316H369.875V321ZM369.875 324.875H364.875V329.875H369.875V324.875ZM373.75 324.875H378.75V319.875H373.75V324.875ZM373.75 328.75H368.75V333.75H373.75V328.75ZM377.625 328.75H382.625V323.75H377.625V328.75ZM377.625 340.375V345.375H382.625V340.375H377.625ZM373.75 340.375V335.375H368.75V340.375H373.75ZM373.75 344.25V349.25H378.75V344.25H373.75ZM369.875 344.25V339.25H364.875V344.25H369.875ZM369.875 348.125V353.125H374.875V348.125H369.875ZM358.25 344.25H353.25V349.25H358.25V344.25ZM366 344.25V349.25H371V344.25H366ZM366 340.375V335.375H361V340.375H366ZM369.875 340.375V345.375H374.875V340.375H369.875ZM369.875 328.75H374.875V323.75H369.875V328.75ZM366 328.75H361V333.75H366V328.75ZM366 324.875H371V319.875H366V324.875ZM358.25 324.875V319.875H353.25V324.875H358.25ZM350.5 348.125H355.5V321H350.5H345.5V348.125H350.5ZM350.5 321V326H369.875V321V316H350.5V321ZM369.875 321H364.875V324.875H369.875H374.875V321H369.875ZM369.875 324.875V329.875H373.75V324.875V319.875H369.875V324.875ZM373.75 324.875H368.75V328.75H373.75H378.75V324.875H373.75ZM373.75 328.75V333.75H377.625V328.75V323.75H373.75V328.75ZM377.625 328.75H372.625V340.375H377.625H382.625V328.75H377.625ZM377.625 340.375V335.375H373.75V340.375V345.375H377.625V340.375ZM373.75 340.375H368.75V344.25H373.75H378.75V340.375H373.75ZM373.75 344.25V339.25H369.875V344.25V349.25H373.75V344.25ZM369.875 344.25H364.875V348.125H369.875H374.875V344.25H369.875ZM369.875 348.125V343.125H350.5V348.125V353.125H369.875V348.125ZM358.25 344.25V349.25H366V344.25V339.25H358.25V344.25ZM366 344.25H371V340.375H366H361V344.25H366ZM366 340.375V345.375H369.875V340.375V335.375H366V340.375ZM369.875 340.375H374.875V328.75H369.875H364.875V340.375H369.875ZM369.875 328.75V323.75H366V328.75V333.75H369.875V328.75ZM366 328.75H371V324.875H366H361V328.75H366ZM366 324.875V319.875H358.25V324.875V329.875H366V324.875ZM358.25 324.875H353.25V344.25H358.25H363.25V324.875H358.25ZM381.5 348.125H376.5V353.125H381.5V348.125ZM381.5 321V316H376.5V321H381.5ZM408.625 321H413.625V316H408.625V321ZM408.625 324.875V329.875H413.625V324.875H408.625ZM389.25 324.875V319.875H384.25V324.875H389.25ZM389.25 332.625H384.25V337.625H389.25V332.625ZM404.75 332.625H409.75V327.625H404.75V332.625ZM404.75 336.5V341.5H409.75V336.5H404.75ZM389.25 336.5V331.5H384.25V336.5H389.25ZM389.25 344.25H384.25V349.25H389.25V344.25ZM408.625 344.25H413.625V339.25H408.625V344.25ZM408.625 348.125V353.125H413.625V348.125H408.625ZM381.5 348.125H386.5V321H381.5H376.5V348.125H381.5ZM381.5 321V326H408.625V321V316H381.5V321ZM408.625 321H403.625V324.875H408.625H413.625V321H408.625ZM408.625 324.875V319.875H389.25V324.875V329.875H408.625V324.875ZM389.25 324.875H384.25V332.625H389.25H394.25V324.875H389.25ZM389.25 332.625V337.625H404.75V332.625V327.625H389.25V332.625ZM404.75 332.625H399.75V336.5H404.75H409.75V332.625H404.75ZM404.75 336.5V331.5H389.25V336.5V341.5H404.75V336.5ZM389.25 336.5H384.25V344.25H389.25H394.25V336.5H389.25ZM389.25 344.25V349.25H408.625V344.25V339.25H389.25V344.25ZM408.625 344.25H403.625V348.125H408.625H413.625V344.25H408.625ZM408.625 348.125V343.125H381.5V348.125V353.125H408.625V348.125ZM412.5 348.125H407.5V353.125H412.5V348.125ZM412.5 321V316H407.5V321H412.5ZM435.75 321H440.75V316H435.75V321ZM435.75 324.875H430.75V329.875H435.75V324.875ZM439.625 324.875H444.625V319.875H439.625V324.875ZM439.625 336.5V341.5H444.625V336.5H439.625ZM431.875 336.5V331.5H426.875V336.5H431.875ZM431.875 340.375H426.875V345.375H431.875V340.375ZM435.75 340.375H440.75V335.375H435.75V340.375ZM435.75 344.25H430.75V349.25H435.75V344.25ZM439.625 344.25H444.625V339.25H439.625V344.25ZM439.625 348.125V353.125H444.625V348.125H439.625ZM428 348.125H423V353.125H428V348.125ZM428 344.25H433V339.25H428V344.25ZM424.125 344.25H419.125V349.25H424.125V344.25ZM424.125 340.375H429.125V335.375H424.125V340.375ZM420.25 340.375V335.375H415.25V340.375H420.25ZM420.25 348.125V353.125H425.25V348.125H420.25ZM420.25 336.5H415.25V341.5H420.25V336.5ZM428 336.5V341.5H433V336.5H428ZM428 332.625V327.625H423V332.625H428ZM431.875 332.625V337.625H436.875V332.625H431.875ZM431.875 324.875H436.875V319.875H431.875V324.875ZM420.25 324.875V319.875H415.25V324.875H420.25ZM412.5 348.125H417.5V321H412.5H407.5V348.125H412.5ZM412.5 321V326H435.75V321V316H412.5V321ZM435.75 321H430.75V324.875H435.75H440.75V321H435.75ZM435.75 324.875V329.875H439.625V324.875V319.875H435.75V324.875ZM439.625 324.875H434.625V336.5H439.625H444.625V324.875H439.625ZM439.625 336.5V331.5H431.875V336.5V341.5H439.625V336.5ZM431.875 336.5H426.875V340.375H431.875H436.875V336.5H431.875ZM431.875 340.375V345.375H435.75V340.375V335.375H431.875V340.375ZM435.75 340.375H430.75V344.25H435.75H440.75V340.375H435.75ZM435.75 344.25V349.25H439.625V344.25V339.25H435.75V344.25ZM439.625 344.25H434.625V348.125H439.625H444.625V344.25H439.625ZM439.625 348.125V343.125H428V348.125V353.125H439.625V348.125ZM428 348.125H433V344.25H428H423V348.125H428ZM428 344.25V339.25H424.125V344.25V349.25H428V344.25ZM424.125 344.25H429.125V340.375H424.125H419.125V344.25H424.125ZM424.125 340.375V335.375H420.25V340.375V345.375H424.125V340.375ZM420.25 340.375H415.25V348.125H420.25H425.25V340.375H420.25ZM420.25 348.125V343.125H412.5V348.125V353.125H420.25V348.125ZM420.25 336.5V341.5H428V336.5V331.5H420.25V336.5ZM428 336.5H433V332.625H428H423V336.5H428ZM428 332.625V337.625H431.875V332.625V327.625H428V332.625ZM431.875 332.625H436.875V324.875H431.875H426.875V332.625H431.875ZM431.875 324.875V319.875H420.25V324.875V329.875H431.875V324.875ZM420.25 324.875H415.25V336.5H420.25H425.25V324.875H420.25ZM447.375 348.125H442.375V353.125H447.375V348.125ZM447.375 344.25H452.375V339.25H447.375V344.25ZM443.5 344.25H438.5V349.25H443.5V344.25ZM443.5 340.375V335.375H438.5V340.375H443.5ZM451.25 340.375H456.25V335.375H451.25V340.375ZM451.25 344.25H446.25V349.25H451.25V344.25ZM462.875 344.25V349.25H467.875V344.25H462.875ZM462.875 336.5H467.875V331.5H462.875V336.5ZM447.375 336.5H442.375V341.5H447.375V336.5ZM447.375 332.625H452.375V327.625H447.375V332.625ZM443.5 332.625H438.5V337.625H443.5V332.625ZM443.5 324.875V319.875H438.5V324.875H443.5ZM447.375 324.875V329.875H452.375V324.875H447.375ZM447.375 321V316H442.375V321H447.375ZM466.75 321H471.75V316H466.75V321ZM466.75 324.875H461.75V329.875H466.75V324.875ZM470.625 324.875H475.625V319.875H470.625V324.875ZM470.625 328.75V333.75H475.625V328.75H470.625ZM462.875 328.75H457.875V333.75H462.875V328.75ZM462.875 324.875H467.875V319.875H462.875V324.875ZM451.25 324.875V319.875H446.25V324.875H451.25ZM451.25 332.625H446.25V337.625H451.25V332.625ZM466.75 332.625H471.75V327.625H466.75V332.625ZM466.75 336.5H461.75V341.5H466.75V336.5ZM470.625 336.5H475.625V331.5H470.625V336.5ZM470.625 344.25V349.25H475.625V344.25H470.625ZM466.75 344.25V339.25H461.75V344.25H466.75ZM466.75 348.125V353.125H471.75V348.125H466.75ZM447.375 348.125H452.375V344.25H447.375H442.375V348.125H447.375ZM447.375 344.25V339.25H443.5V344.25V349.25H447.375V344.25ZM443.5 344.25H448.5V340.375H443.5H438.5V344.25H443.5ZM443.5 340.375V345.375H451.25V340.375V335.375H443.5V340.375ZM451.25 340.375H446.25V344.25H451.25H456.25V340.375H451.25ZM451.25 344.25V349.25H462.875V344.25V339.25H451.25V344.25ZM462.875 344.25H467.875V336.5H462.875H457.875V344.25H462.875ZM462.875 336.5V331.5H447.375V336.5V341.5H462.875V336.5ZM447.375 336.5H452.375V332.625H447.375H442.375V336.5H447.375ZM447.375 332.625V327.625H443.5V332.625V337.625H447.375V332.625ZM443.5 332.625H448.5V324.875H443.5H438.5V332.625H443.5ZM443.5 324.875V329.875H447.375V324.875V319.875H443.5V324.875ZM447.375 324.875H452.375V321H447.375H442.375V324.875H447.375ZM447.375 321V326H466.75V321V316H447.375V321ZM466.75 321H461.75V324.875H466.75H471.75V321H466.75ZM466.75 324.875V329.875H470.625V324.875V319.875H466.75V324.875ZM470.625 324.875H465.625V328.75H470.625H475.625V324.875H470.625ZM470.625 328.75V323.75H462.875V328.75V333.75H470.625V328.75ZM462.875 328.75H467.875V324.875H462.875H457.875V328.75H462.875ZM462.875 324.875V319.875H451.25V324.875V329.875H462.875V324.875ZM451.25 324.875H446.25V332.625H451.25H456.25V324.875H451.25ZM451.25 332.625V337.625H466.75V332.625V327.625H451.25V332.625ZM466.75 332.625H461.75V336.5H466.75H471.75V332.625H466.75ZM466.75 336.5V341.5H470.625V336.5V331.5H466.75V336.5ZM470.625 336.5H465.625V344.25H470.625H475.625V336.5H470.625ZM470.625 344.25V339.25H466.75V344.25V349.25H470.625V344.25ZM466.75 344.25H461.75V348.125H466.75H471.75V344.25H466.75ZM466.75 348.125V343.125H447.375V348.125V353.125H466.75V348.125ZM482.25 332.625H477.25V337.625H482.25V332.625ZM482.25 324.875V319.875H477.25V324.875H482.25ZM490 324.875H495V319.875H490V324.875ZM490 332.625V337.625H495V332.625H490ZM482.25 344.25H477.25V349.25H482.25V344.25ZM482.25 336.5V331.5H477.25V336.5H482.25ZM490 336.5H495V331.5H490V336.5ZM490 344.25V349.25H495V344.25H490ZM482.25 332.625H487.25V324.875H482.25H477.25V332.625H482.25ZM482.25 324.875V329.875H490V324.875V319.875H482.25V324.875ZM490 324.875H485V332.625H490H495V324.875H490ZM490 332.625V327.625H482.25V332.625V337.625H490V332.625ZM482.25 344.25H487.25V336.5H482.25H477.25V344.25H482.25ZM482.25 336.5V341.5H490V336.5V331.5H482.25V336.5ZM490 336.5H485V344.25H490H495V336.5H490ZM490 344.25V339.25H482.25V344.25V349.25H490V344.25ZM164.5 431.125H159.5V436.125H164.5V431.125ZM164.5 404V399H159.5V404H164.5ZM172.25 404H177.25V399H172.25V404ZM172.25 407.875H167.25V412.875H172.25V407.875ZM176.125 407.875H181.125V402.875H176.125V407.875ZM176.125 411.75H171.125V416.75H176.125V411.75ZM180 411.75V416.75H185V411.75H180ZM180 407.875V402.875H175V407.875H180ZM183.875 407.875V412.875H188.875V407.875H183.875ZM183.875 404V399H178.875V404H183.875ZM191.625 404H196.625V399H191.625V404ZM191.625 431.125V436.125H196.625V431.125H191.625ZM183.875 431.125H178.875V436.125H183.875V431.125ZM183.875 415.625H188.875V410.625H183.875V415.625ZM180 415.625V410.625H175V415.625H180ZM180 423.375V428.375H185V423.375H180ZM176.125 423.375H171.125V428.375H176.125V423.375ZM176.125 415.625H181.125V410.625H176.125V415.625ZM172.25 415.625V410.625H167.25V415.625H172.25ZM172.25 431.125V436.125H177.25V431.125H172.25ZM164.5 431.125H169.5V404H164.5H159.5V431.125H164.5ZM164.5 404V409H172.25V404V399H164.5V404ZM172.25 404H167.25V407.875H172.25H177.25V404H172.25ZM172.25 407.875V412.875H176.125V407.875V402.875H172.25V407.875ZM176.125 407.875H171.125V411.75H176.125H181.125V407.875H176.125ZM176.125 411.75V416.75H180V411.75V406.75H176.125V411.75ZM180 411.75H185V407.875H180H175V411.75H180ZM180 407.875V412.875H183.875V407.875V402.875H180V407.875ZM183.875 407.875H188.875V404H183.875H178.875V407.875H183.875ZM183.875 404V409H191.625V404V399H183.875V404ZM191.625 404H186.625V431.125H191.625H196.625V404H191.625ZM191.625 431.125V426.125H183.875V431.125V436.125H191.625V431.125ZM183.875 431.125H188.875V415.625H183.875H178.875V431.125H183.875ZM183.875 415.625V410.625H180V415.625V420.625H183.875V415.625ZM180 415.625H175V423.375H180H185V415.625H180ZM180 423.375V418.375H176.125V423.375V428.375H180V423.375ZM176.125 423.375H181.125V415.625H176.125H171.125V423.375H176.125ZM176.125 415.625V410.625H172.25V415.625V420.625H176.125V415.625ZM172.25 415.625H167.25V431.125H172.25H177.25V415.625H172.25ZM172.25 431.125V426.125H164.5V431.125V436.125H172.25V431.125ZM199.375 431.125H194.375V436.125H199.375V431.125ZM199.375 427.25H204.375V422.25H199.375V427.25ZM195.5 427.25H190.5V432.25H195.5V427.25ZM195.5 407.875V402.875H190.5V407.875H195.5ZM199.375 407.875V412.875H204.375V407.875H199.375ZM199.375 404V399H194.375V404H199.375ZM218.75 404H223.75V399H218.75V404ZM218.75 407.875H213.75V412.875H218.75V407.875ZM222.625 407.875H227.625V402.875H222.625V407.875ZM222.625 427.25V432.25H227.625V427.25H222.625ZM218.75 427.25V422.25H213.75V427.25H218.75ZM218.75 431.125V436.125H223.75V431.125H218.75ZM203.25 427.25H198.25V432.25H203.25V427.25ZM214.875 427.25V432.25H219.875V427.25H214.875ZM214.875 407.875H219.875V402.875H214.875V407.875ZM203.25 407.875V402.875H198.25V407.875H203.25ZM199.375 431.125H204.375V427.25H199.375H194.375V431.125H199.375ZM199.375 427.25V422.25H195.5V427.25V432.25H199.375V427.25ZM195.5 427.25H200.5V407.875H195.5H190.5V427.25H195.5ZM195.5 407.875V412.875H199.375V407.875V402.875H195.5V407.875ZM199.375 407.875H204.375V404H199.375H194.375V407.875H199.375ZM199.375 404V409H218.75V404V399H199.375V404ZM218.75 404H213.75V407.875H218.75H223.75V404H218.75ZM218.75 407.875V412.875H222.625V407.875V402.875H218.75V407.875ZM222.625 407.875H217.625V427.25H222.625H227.625V407.875H222.625ZM222.625 427.25V422.25H218.75V427.25V432.25H222.625V427.25ZM218.75 427.25H213.75V431.125H218.75H223.75V427.25H218.75ZM218.75 431.125V426.125H199.375V431.125V436.125H218.75V431.125ZM203.25 427.25V432.25H214.875V427.25V422.25H203.25V427.25ZM214.875 427.25H219.875V407.875H214.875H209.875V427.25H214.875ZM214.875 407.875V402.875H203.25V407.875V412.875H214.875V407.875ZM203.25 407.875H198.25V427.25H203.25H208.25V407.875H203.25ZM226.5 431.125H221.5V436.125H226.5V431.125ZM226.5 404V399H221.5V404H226.5ZM245.875 404H250.875V399H245.875V404ZM245.875 407.875H240.875V412.875H245.875V407.875ZM249.75 407.875H254.75V402.875H249.75V407.875ZM249.75 411.75H244.75V416.75H249.75V411.75ZM253.625 411.75H258.625V406.75H253.625V411.75ZM253.625 423.375V428.375H258.625V423.375H253.625ZM249.75 423.375V418.375H244.75V423.375H249.75ZM249.75 427.25V432.25H254.75V427.25H249.75ZM245.875 427.25V422.25H240.875V427.25H245.875ZM245.875 431.125V436.125H250.875V431.125H245.875ZM234.25 427.25H229.25V432.25H234.25V427.25ZM242 427.25V432.25H247V427.25H242ZM242 423.375V418.375H237V423.375H242ZM245.875 423.375V428.375H250.875V423.375H245.875ZM245.875 411.75H250.875V406.75H245.875V411.75ZM242 411.75H237V416.75H242V411.75ZM242 407.875H247V402.875H242V407.875ZM234.25 407.875V402.875H229.25V407.875H234.25ZM226.5 431.125H231.5V404H226.5H221.5V431.125H226.5ZM226.5 404V409H245.875V404V399H226.5V404ZM245.875 404H240.875V407.875H245.875H250.875V404H245.875ZM245.875 407.875V412.875H249.75V407.875V402.875H245.875V407.875ZM249.75 407.875H244.75V411.75H249.75H254.75V407.875H249.75ZM249.75 411.75V416.75H253.625V411.75V406.75H249.75V411.75ZM253.625 411.75H248.625V423.375H253.625H258.625V411.75H253.625ZM253.625 423.375V418.375H249.75V423.375V428.375H253.625V423.375ZM249.75 423.375H244.75V427.25H249.75H254.75V423.375H249.75ZM249.75 427.25V422.25H245.875V427.25V432.25H249.75V427.25ZM245.875 427.25H240.875V431.125H245.875H250.875V427.25H245.875ZM245.875 431.125V426.125H226.5V431.125V436.125H245.875V431.125ZM234.25 427.25V432.25H242V427.25V422.25H234.25V427.25ZM242 427.25H247V423.375H242H237V427.25H242ZM242 423.375V428.375H245.875V423.375V418.375H242V423.375ZM245.875 423.375H250.875V411.75H245.875H240.875V423.375H245.875ZM245.875 411.75V406.75H242V411.75V416.75H245.875V411.75ZM242 411.75H247V407.875H242H237V411.75H242ZM242 407.875V402.875H234.25V407.875V412.875H242V407.875ZM234.25 407.875H229.25V427.25H234.25H239.25V407.875H234.25ZM261.375 431.125H256.375V436.125H261.375V431.125ZM261.375 427.25H266.375V422.25H261.375V427.25ZM257.5 427.25H252.5V432.25H257.5V427.25ZM257.5 404V399H252.5V404H257.5ZM265.25 404H270.25V399H265.25V404ZM265.25 427.25H260.25V432.25H265.25V427.25ZM276.875 427.25V432.25H281.875V427.25H276.875ZM276.875 404V399H271.875V404H276.875ZM284.625 404H289.625V399H284.625V404ZM284.625 427.25V432.25H289.625V427.25H284.625ZM280.75 427.25V422.25H275.75V427.25H280.75ZM280.75 431.125V436.125H285.75V431.125H280.75ZM261.375 431.125H266.375V427.25H261.375H256.375V431.125H261.375ZM261.375 427.25V422.25H257.5V427.25V432.25H261.375V427.25ZM257.5 427.25H262.5V404H257.5H252.5V427.25H257.5ZM257.5 404V409H265.25V404V399H257.5V404ZM265.25 404H260.25V427.25H265.25H270.25V404H265.25ZM265.25 427.25V432.25H276.875V427.25V422.25H265.25V427.25ZM276.875 427.25H281.875V404H276.875H271.875V427.25H276.875ZM276.875 404V409H284.625V404V399H276.875V404ZM284.625 404H279.625V427.25H284.625H289.625V404H284.625ZM284.625 427.25V422.25H280.75V427.25V432.25H284.625V427.25ZM280.75 427.25H275.75V431.125H280.75H285.75V427.25H280.75ZM280.75 431.125V426.125H261.375V431.125V436.125H280.75V431.125ZM292.375 431.125H287.375V436.125H292.375V431.125ZM292.375 404V399H287.375V404H292.375ZM300.125 404H305.125V399H300.125V404ZM300.125 427.25H295.125V432.25H300.125V427.25ZM315.625 427.25H320.625V422.25H315.625V427.25ZM315.625 431.125V436.125H320.625V431.125H315.625ZM292.375 431.125H297.375V404H292.375H287.375V431.125H292.375ZM292.375 404V409H300.125V404V399H292.375V404ZM300.125 404H295.125V427.25H300.125H305.125V404H300.125ZM300.125 427.25V432.25H315.625V427.25V422.25H300.125V427.25ZM315.625 427.25H310.625V431.125H315.625H320.625V427.25H315.625ZM315.625 431.125V426.125H292.375V431.125V436.125H315.625V431.125ZM323.375 431.125H318.375V436.125H323.375V431.125ZM323.375 427.25H328.375V422.25H323.375V427.25ZM319.5 427.25H314.5V432.25H319.5V427.25ZM319.5 407.875V402.875H314.5V407.875H319.5ZM323.375 407.875V412.875H328.375V407.875H323.375ZM323.375 404V399H318.375V404H323.375ZM342.75 404H347.75V399H342.75V404ZM342.75 407.875H337.75V412.875H342.75V407.875ZM346.625 407.875H351.625V402.875H346.625V407.875ZM346.625 427.25V432.25H351.625V427.25H346.625ZM342.75 427.25V422.25H337.75V427.25H342.75ZM342.75 431.125V436.125H347.75V431.125H342.75ZM327.25 427.25H322.25V432.25H327.25V427.25ZM338.875 427.25V432.25H343.875V427.25H338.875ZM338.875 407.875H343.875V402.875H338.875V407.875ZM327.25 407.875V402.875H322.25V407.875H327.25ZM323.375 431.125H328.375V427.25H323.375H318.375V431.125H323.375ZM323.375 427.25V422.25H319.5V427.25V432.25H323.375V427.25ZM319.5 427.25H324.5V407.875H319.5H314.5V427.25H319.5ZM319.5 407.875V412.875H323.375V407.875V402.875H319.5V407.875ZM323.375 407.875H328.375V404H323.375H318.375V407.875H323.375ZM323.375 404V409H342.75V404V399H323.375V404ZM342.75 404H337.75V407.875H342.75H347.75V404H342.75ZM342.75 407.875V412.875H346.625V407.875V402.875H342.75V407.875ZM346.625 407.875H341.625V427.25H346.625H351.625V407.875H346.625ZM346.625 427.25V422.25H342.75V427.25V432.25H346.625V427.25ZM342.75 427.25H337.75V431.125H342.75H347.75V427.25H342.75ZM342.75 431.125V426.125H323.375V431.125V436.125H342.75V431.125ZM327.25 427.25V432.25H338.875V427.25V422.25H327.25V427.25ZM338.875 427.25H343.875V407.875H338.875H333.875V427.25H338.875ZM338.875 407.875V402.875H327.25V407.875V412.875H338.875V407.875ZM327.25 407.875H322.25V427.25H327.25H332.25V407.875H327.25Z" fill="black" mask="url(#path-10-outside-1_220_3)"/>
</g>
<defs>
<clipPath id="clip0_220_3">
<rect width="503" height="460" fill="white"/>
</clipPath>
</defs>
</svg>
