<svg width="503" height="302" viewBox="0 0 503 302" fill="none" xmlns="http://www.w3.org/2000/svg">
<path d="M423.187 46.7219C444.436 58.6016 461.417 73.049 471.739 86.6668C476.903 93.4802 480.297 99.9496 481.81 105.669C483.318 111.365 482.913 116.09 480.84 119.797C478.767 123.505 474.954 126.324 469.312 128.023C463.648 129.729 456.359 130.227 447.85 129.395C430.843 127.734 409.642 120.835 388.394 108.955C367.145 97.0751 350.164 82.6277 339.842 69.0099C334.678 62.1966 331.284 55.7271 329.771 50.0081C328.264 44.3121 328.668 39.5866 330.741 35.8794C332.814 32.1722 336.627 29.3525 342.269 27.6534C347.933 25.9475 355.222 25.4502 363.731 26.2813C380.738 27.9426 401.939 34.8422 423.187 46.7219Z" fill="#647A78" stroke="black" stroke-width="7"/>
<path d="M479.177 120.668C494.5 156.379 491.639 169.488 391.94 221.206C313.427 266.071 219.083 277.264 203.759 241.553C188.435 205.841 226.215 148.471 299.719 116.93C373.224 85.3884 463.853 84.9569 479.177 120.668Z" fill="#647A78"/>
<path d="M213.729 255.885C256.724 269.593 275.995 275.175 388.825 223.483C530.272 158.678 480.423 115.06 450.513 101.352C420.604 87.6432 408.764 96.9899 364.523 94.4974" stroke="black" stroke-width="7"/>
<path d="M375.116 110.698C380.037 128.146 322.151 163.04 271.679 166.779C197.528 156.809 175.096 158.678 164.503 133.754C170.111 94.4975 210.03 58.3704 266.693 50.8793C320.282 39.6633 368.262 86.3971 375.116 110.698Z" fill="#00FEF1"/>
<path d="M333.367 149.332C306.449 165.782 271.471 166.156 257.347 164.286C248.416 162.625 224.386 166.805 218.091 164.286C208.744 160.548 163.88 151.824 163.88 127.523C163.88 94.7275 206.252 59.603 257.347 52.1256C308.443 44.6482 329.006 53.9949 360.785 88.8894C392.564 123.784 367.016 128.769 333.367 149.332Z" stroke="black" stroke-width="7"/>
<path d="M170.868 145.921C208.91 156.167 241.372 172.147 263.113 189.555C273.988 198.263 282.046 207.22 286.833 215.862C291.609 224.484 293.029 232.583 291.07 239.854C289.111 247.126 283.816 253.416 275.356 258.473C266.876 263.541 255.409 267.239 241.631 269.307C214.088 273.44 177.992 270.953 139.95 260.707C101.908 250.46 69.4469 234.48 47.7061 217.072C36.8313 208.365 28.773 199.407 23.9857 190.765C19.2098 182.144 17.7902 174.045 19.7488 166.773C21.7075 159.502 27.0028 153.211 35.4629 148.155C43.9432 143.087 55.4102 139.388 69.1874 137.321C96.7304 133.188 132.826 135.674 170.868 145.921Z" fill="#647A78" stroke="black" stroke-width="7"/>
<ellipse cx="322.151" cy="195.442" rx="23.0553" ry="11.8392" fill="black"/>
<ellipse cx="418.227" cy="149.209" rx="11.1803" ry="19.0323" transform="rotate(19.6946 418.227 149.209)" fill="black"/>
<path d="M228.06 167.402C171.357 174.879 151.417 222.236 191.297 269.593M175.096 148.085C119.015 158.678 89.1056 214.136 135.839 256.508M124 136.869C61.0654 151.824 37.387 184.849 81.6283 235.945" stroke="black" stroke-width="7"/>
</svg>
